<?xml version="1.0" standalone="no"?>
<!DOCTYPE svg PUBLIC "-//W3C//DTD SVG 1.1//EN" "http://www.w3.org/Graphics/SVG/1.1/DTD/svg11.dtd" >
<!--
2013-9-30: Created.
-->
<svg>
<metadata>
Created by iconfont
</metadata>
<defs>

<font id="iconfont" horiz-adv-x="1024" >
  <font-face
    font-family="iconfont"
    font-weight="500"
    font-stretch="normal"
    units-per-em="1024"
    ascent="896"
    descent="-128"
  />
    <missing-glyph />
    
    <glyph glyph-name="x" unicode="x" horiz-adv-x="1001"
d="M281 543q-27 -1 -53 -1h-83q-18 0 -36.5 -6t-32.5 -18.5t-23 -32t-9 -45.5v-76h912v41q0 16 -0.5 30t-0.5 18q0 13 -5 29t-17 29.5t-31.5 22.5t-49.5 9h-133v-97h-438v97zM955 310v-52q0 -23 0.5 -52t0.5 -58t-10.5 -47.5t-26 -30t-33 -16t-31.5 -4.5q-14 -1 -29.5 -0.5
t-29.5 0.5h-32l-45 128h-439l-44 -128h-29h-34q-20 0 -45 1q-25 0 -41 9.5t-25.5 23t-13.5 29.5t-4 30v167h911zM163 247q-12 0 -21 -8.5t-9 -21.5t9 -21.5t21 -8.5q13 0 22 8.5t9 21.5t-9 21.5t-22 8.5zM316 123q-8 -26 -14 -48q-5 -19 -10.5 -37t-7.5 -25t-3 -15t1 -14.5
t9.5 -10.5t21.5 -4h37h67h81h80h64h36q23 0 34 12t2 38q-5 13 -9.5 30.5t-9.5 34.5q-5 19 -11 39h-368zM336 498v228q0 11 2.5 23t10 21.5t20.5 15.5t34 6h188q31 0 51.5 -14.5t20.5 -52.5v-227h-327z" />
    

    
    <glyph glyph-name="search1" unicode="&#58991;" d="M420.522667 671.4026670000001c-107.861333 0-195.584-87.722667-195.584-195.584 0-13.653333 10.922667-24.576 24.576-24.576s24.576 10.922667 24.576 24.576c0 80.896 65.877333 146.773333 146.773333 146.773333 13.653333 0 24.576 10.922667 24.576 24.576-0.682667 13.312-11.605333 24.234667-24.917333 24.234667zM914.432 16.04266700000005L706.901333 223.57333300000005c-1.024 1.024-2.730667 1.706667-4.096 2.730667 52.565333 60.074667 84.650667 138.581333 84.650667 224.597333C787.456 640 633.856 793.6 444.757333 793.6S102.4 640 102.4 451.242667s153.6-342.357333 342.357333-342.357334c86.016 0 164.522667 32.085333 224.597334 84.650667 1.024-1.365333 1.365333-2.730667 2.730666-4.096l207.530667-207.530667c4.778667-4.778667 10.922667-7.168 17.408-7.168s12.629333 2.389333 17.408 7.168c9.557333 9.216 9.557333 24.576 0 34.133334z m-469.674667 141.653333c-161.792 0-293.546667 131.754667-293.546666 293.546667s131.754667 293.546667 293.546666 293.546666 293.546667-131.754667 293.546667-293.546666c0.341333-162.133333-131.413333-293.546667-293.546667-293.546667z"  horiz-adv-x="1024" />

    
    <glyph glyph-name="arrow-down-solid" unicode="&#59033;" d="M512 896c-282.752 0-512-229.248-512-512 0-282.784 229.248-512 512-512 282.784 0 512 229.216 512 512 0 282.752-229.216 512-512 512zM512 128l-256 256h192v256h128v-256h192l-256-256z"  horiz-adv-x="1024" />

    
    <glyph glyph-name="share-2" unicode="&#58962;" d="M809.654 66.703c0-10.188-8.262-18.45-18.432-18.45h-646.272c-10.188 0-18.432 8.262-18.432 18.45l-0 534.511c0 10.188 8.244 18.432 18.432 18.432h166.212v36.864h-183.492c-20.358 0-36.864-16.488-36.864-36.864v-571.392c0-20.358 16.506-36.846 36.864-36.846l680.832-0c20.358 0 36.864 16.488 36.864 36.846v221.184h-35.712v-202.735zM932.864 645.548l0.18 0.342-8.046 4.392-22.932 13.788-0.594-0.954-178.596 97.488-17.64-33.030 150.174-81.036c-229.896-27.306-407.502-189.738-407.502-427.914 0-11.052 0.9-21.87 1.656-32.742l42.21 0.018c-0.864 11.052-1.692 22.104-1.692 33.39 0 218.737 164.484 363.78 376.38 387.036l-89.73-145.584 31.806-19.782 105.93 173.718 0.972-0.522 13.122 23.652 4.608 7.56-0.306 0.181z"  horiz-adv-x="1024" />

    
    <glyph glyph-name="arrow-right" unicode="&#58946;" d="M257.964 787.505l50.655 50.663 455.954-455.952-455.954-455.943-50.655 50.656 405.296 405.287z"  horiz-adv-x="1024" />

    
    <glyph glyph-name="arrow-left" unicode="&#58947;" d="M764.571 787.505l-50.655 50.663-455.954-455.952 455.954-455.943 50.655 50.656-405.296 405.287z"  horiz-adv-x="1024" />

    
    <glyph glyph-name="arrow-down" unicode="&#59041;" d="M964.442 580.503l-60.836 59.502-391.607-391.676-391.607 391.676-60.836-59.502 452.442-452.508z"  horiz-adv-x="1024" />

    
    <glyph glyph-name="arrow-up" unicode="&#59042;" d="M511.999 640.006l-452.442-452.508 60.833-59.502 391.607 391.674 391.607-391.674 60.836 59.502z"  horiz-adv-x="1024" />

    
    <glyph glyph-name="close" unicode="&#58889;" d="M184.64768-24.34176c3.9936-3.9936 9.23648-5.98016 14.47936-5.98016 5.24288 0 10.48576 2.00704 14.49984 6.00064l292.70016 293.04832 292.70016-293.04832c3.9936-4.01408 9.23648-6.00064 14.49984-6.00064 5.24288 0 10.48576 2.00704 14.47936 5.98016 8.00768 7.9872 8.00768 20.95104 0.02048 28.95872L535.61344 297.35808 828.0064 590.07872c7.9872 8.00768 7.9872 20.97152-0.02048 28.95872-8.02816 8.00768-20.97152 8.00768-28.95872-0.02048L506.30656 325.96864 213.6064 619.01696c-8.00768 8.00768-20.97152 8.00768-28.95872 0.02048-8.00768-7.9872-8.00768-20.95104-0.02048-28.95872l292.37248-292.72064L184.6272 4.61696C176.64-3.37024 176.64-16.35456 184.64768-24.34176z"  horiz-adv-x="1024" />

    
    <glyph glyph-name="search" unicode="&#58910;" d="M939.647-68.421c-6.343 0-12.65 2.691-17.070 7.916l-249.569 294.982c-7.507 8.869-6.962 22.012 1.255 30.226 27.876 27.891 50.123 60.207 66.122 96.053 18.348 41.121 27.653 84.993 27.653 130.401 0 176.63-143.705 320.327-320.341 320.327s-320.341-143.698-320.341-320.327c0-176.627 143.705-320.324 320.341-320.324 44.754 0 88.037 9.043 128.653 26.88 11.315 4.953 24.483-0.178 29.443-11.473 4.964-11.302-0.175-24.481-11.472-29.443-46.311-20.338-95.643-30.646-146.622-30.646-201.28 0-365.034 163.745-365.034 365.014 0 201.27 163.753 365.017 365.029 365.017s365.029-163.745 365.029-365.017c0-51.723-10.61-101.723-31.537-148.613-15.431-34.585-35.961-66.276-61.161-94.459l236.662-279.728c7.97-9.422 6.797-23.517-2.624-31.492-4.201-3.546-9.323-5.285-14.423-5.285z"  horiz-adv-x="1024" />

    
    <glyph glyph-name="xiazai" unicode="&#59013;" d="M494.58048709 140.28444266999998c0.70998514-1.03205045 1.50682132-2.02025556 2.42086377-2.93510385 0.91404246-0.91147577 1.89807248-1.70406354 2.92426199-2.41233316 0.10540201-0.07167014 0.20237146-0.15345867 0.30777265-0.22344213 0.09191025-0.06323841 0.19225222-0.11467254 0.28500622-0.17369468 3.30539475-2.15094782 7.24151239-3.41234253 11.47697012-3.41234253 4.23883108 0 8.1766354 1.26139472 11.47697013 3.41234253 0.09443985 0.05902212 0.19309598 0.11129919 0.28837875 0.17369468 0.10540201 0.06998346 0.20574399 0.151772 0.30777265 0.22344213 1.02619034 0.70911338 2.01106247 1.50085739 2.92510574 2.41233316 0.91572912 0.91653497 1.71425198 1.90474009 2.42423712 2.9367897l334.9486063 334.955119c8.13531803 8.11559125 8.13531803 21.31976377 0 29.45643475-8.13447428 8.15774991-21.34087481 8.15774991-29.47619202 0L533.09254864 202.91319954000005 533.09254864 785.00219915c0 11.65778311-9.43386575 21.09294909-21.09296969 21.09294909s-21.09465637-9.43432223-21.09465637-21.09294909l0-582.08899961L189.10807281 504.69936976c-8.13700388 8.15774991-21.34171775 8.15774991-29.47787869 0-8.13616095-8.13414139-8.13616095-21.34084351 0-29.45643474L494.58048709 140.28444266999998zM912.77612735 46.75741660999995L111.22134305 46.75741660999995c-11.65910477 0-21.09381345-9.43347931-21.09381345-21.09463495 0-11.63754712 9.43386575-21.09126242 21.09381345-21.09126242l801.55562805 0c11.63971088 0 21.09634305 9.4537153 21.09634304 21.09126242C933.87162747 37.32393730000001 924.41499448 46.75741660999995 912.77612735 46.75741660999995z"  horiz-adv-x="1024" />

    
    <glyph glyph-name="edit" unicode="&#58912;" d="M931.733 550.695l-402.921-390.418-143.894-27.887 28.778 139.434 402.913 390.419c0 0 27.879 28.757 57.559 0 26.082-25.274 32.375-31.376 57.562-55.777 29.678-28.761 0.002-55.773 0.002-55.773v0zM413.694 160.277l115.119 27.885-86.338 83.661-28.779-111.55zM528.81 216.050l316.579 306.755-57.563 55.767-316.575-306.755 57.559-55.772zM845.383 634.358l-28.775-27.884 57.566-55.777 28.775 27.887-57.566 55.773zM816.605 754.575c0-4.063 0 2.546 0-27.741l28.775-0.149v27.883c0 55.353-57.563 55.777-57.563 55.777h-661.929c0 0-57.556-0.423-57.556-55.777v-733.732c0-55.758 57.556-55.767 57.556-55.767h661.926c57.566 0 57.566 55.767 57.566 55.767v362.531l-28.775 0.198v-362.729c0 0 0.898-27.894-28.788-27.894h-661.927c-28.781 0-28.781 27.894-28.781 27.894v733.732c0 27.887 28.781 27.891 28.781 27.891l661.927-0.001c0-0.001 28.788 0 28.788-27.886z"  horiz-adv-x="1024" />

    
    <glyph glyph-name="organization" unicode="&#58896;" d="M490.988 64.928v299.443h180.357c10.335 0 18.714 8.379 18.714 18.714v0c0 10.335-8.379 18.714-18.714 18.714h-180.357v299.443h199.068c10.335 0 18.714 8.379 18.714 18.714v0c0 10.335-8.379 18.714-18.714 18.714h-205.692c-17.012 0-30.804-13.791-30.804-30.804v-306.067h-81.726c-10.335 0-18.714-8.379-18.714-18.714v0c0-10.335 8.379-18.714 18.714-18.714h81.726v-306.070c0-17.012 13.791-30.804 30.804-30.804h205.692c10.335 0 18.714 8.379 18.714 18.714v0c0 10.335-8.379 18.714-18.714 18.714l-199.068 0.001zM738.927 139.791v-187.15c0-10.346 8.383-18.715 18.715-18.715h181.451c10.327 0 18.714 8.369 18.714 18.715v187.15c0 10.327-8.387 18.714-18.714 18.714h-181.451c-10.332 0-18.715-8.388-18.715-18.714v0zM738.928 476.658v-187.144c0-10.346 8.383-18.72 18.715-18.721h181.451c10.327 0 18.714 8.375 18.714 18.72v187.146c0 10.327-8.387 18.721-18.714 18.72h-181.451c-10.332-0.001-18.715-8.394-18.715-18.721v0zM738.927 813.533v-187.151c0-10.346 8.383-18.714 18.715-18.714h181.451c10.327 0 18.714 8.373 18.714 18.714v187.151c0 10.325-8.387 18.714-18.714 18.714h-181.451c-10.332-0.001-18.715-8.388-18.715-18.714v0zM322.555 233.363v299.446c0 10.327-8.378 18.714-18.715 18.714h-224.067c-10.346 0-18.724-8.388-18.724-18.714v-299.446c0-10.341 8.378-18.714 18.724-18.714h224.068c10.336 0 18.714 8.374 18.714 18.714v0zM322.555 233.363z"  horiz-adv-x="1024" />

    
    <glyph glyph-name="question-2" unicode="&#59006;" d="M785.068 735.034h-546.136c-52.087 0-94.314-42.226-94.314-94.314v-363.108c0-52.087 42.226-94.314 94.314-94.314l276.829 0.693 144.588-144.584c8.587-8.588 22.51-8.587 31.097 0.001 8.588 8.587 8.588 22.51 0 31.097l0.001 0.002-147.954 147.951c-3.508 3.508-7.913 5.503-12.473 6.146 0 0.096 0 0.199 0 0.295l-2.989-0.008c-0.059 0.001-0.12 0-0.179 0l-276.664-0.722c-36.719 0-64.703 18.55-64.703 64.703v340.591c0 46.152 27.983 64.703 74.133 64.703h512.192c46.153 0 64.704-18.55 64.704-64.703v-340.591c0-46.152-18.55-64.703-74.135-64.703h-19.859c0-0.008 0-0.016 0-0.025-11.169-0.135-20.189-9.208-20.189-20.41 0-11.201 9.019-20.275 20.189-20.41 0-0.008 0-0.016 0-0.025h41.548c52.087 0 94.314 42.226 94.314 94.314l-0 363.107c-0.001 52.088-42.227 94.314-94.314 94.314zM573.006 457.796c23.241 20.497 37.971 37.282 44.177 50.354 6.221 13.074 9.315 26.55 9.315 40.428 0 27.76-10.679 50.794-32.071 69.12-21.378 18.311-48.696 27.474-81.942 27.474-32.279 0-58.585-8.921-78.919-26.754-20.336-17.834-32.367-43.128-36.065-75.89l0.53-0.057c-0.111-0.903-0.53-1.696-0.53-2.627 0-12.367 10.025-22.391 22.393-22.391 11.617 0 20.848 8.955 21.963 20.28l0.425-0.046c8.068 47.772 31.63 71.657 70.689 71.657 19.203 0 35.506-6.419 48.9-19.241 13.396-12.838 20.085-27.722 20.085-44.669 0-8.231-1.965-16.337-5.927-24.333-3.947-7.982-13.836-19-29.651-33.041-12.427-10.814-22.067-19.852-28.933-27.114-6.852-7.263-12.427-15.010-16.696-23.24-4.286-8.231-7.101-16.668-8.481-25.294-1.364-8.642-2.292-12.82-2.292-31.542h0.447c-0.014-0.306-0.176-0.563-0.176-0.872 0-11.535 9.35-20.885 20.884-20.885s20.885 9.35 20.885 20.885c0 0.641-0.309 1.18-0.366 1.806 0.543 22.75 3.294 29.609 7.834 38.589 4.592 9.124 15.772 21.589 33.525 37.405zM487.183 308.417c-0-13.707 11.112-24.818 24.818-24.818s24.818 11.112 24.818 24.818c0 0 0 0 0 0-0 13.707-11.112 24.818-24.818 24.818-13.707 0-24.818-11.112-24.818-24.818z"  horiz-adv-x="1024" />

    
    <glyph glyph-name="q-zone" unicode="&#58909;" d="M674.624 475.757h-304.447l200.475-34.361-215.323-175.494h326.719l-193.052 41.784zM515.774 820.875c-242.102 0-438.388-196.286-438.388-438.388 0-242.1 196.286-438.364 438.388-438.364 242.1 0 438.339 196.264 438.339 438.364 0 242.102-196.239 438.388-438.339 438.388zM800.774 461.002l-111.394-94.431 37.024-237.729c-7.423-7.401-7.605-7.401-15.073-7.401l-193.416 118.866-193.828-118.866c-14.846 0-16.373 0-16.373 7.401l26.664 237.729-117.499 103.993-40.168 28.511h-11.34v1.23l11.34-1.23h230.578l29.717 52.943 74.256 156.915c7.401 0 7.401 0 14.871 0l81.656-156.915 29.717-52.943h200.477c7.423 0 7.423 4.348 7.423-3.097l-44.632-34.976z"  horiz-adv-x="1024" />

    
    <glyph glyph-name="other-2" unicode="&#59104;" d="M423.572242 355.58007999999995L225.673852 355.58007999999995c-32.931131 0-59.719838-26.788708-59.719838-59.715117l0-188.248035c0-32.931131 26.788708-59.719838 59.719838-59.719838l197.89839 0c32.931131 0 59.719838 26.793429 59.719838 59.719838l0 188.248035C483.29208 328.791373 456.503373 355.58007999999995 423.572242 355.58007999999995zM436.07899 107.61220700000001c0-6.897833-5.608915-12.506748-12.506748-12.506748L225.673852 95.105459c-6.893111 0-12.506748 5.608915-12.506748 12.506748l0 188.248035c0 6.893111 5.608915 12.502026 12.506748 12.502026l197.89839 0c6.893111 0 12.506748-5.608915 12.506748-12.502026L436.07899 107.61220700000001zM423.572242 719.866844L225.673852 719.866844c-32.931131 0-59.719838-26.793429-59.719838-59.719838l0-188.248035c0-32.931131 26.788708-59.715117 59.719838-59.715117l197.89839 0c32.931131 0 59.719838 26.788708 59.719838 59.715117L483.29208 660.142285C483.29208 693.0734150000001 456.503373 719.866844 423.572242 719.866844zM436.07899 471.89425c0-6.893111-5.608915-12.502026-12.506748-12.502026L225.673852 459.392224c-6.893111 0-12.506748 5.608915-12.506748 12.502026L213.167104 660.142285c0 6.897833 5.608915 12.506748 12.506748 12.506748l197.89839 0c6.893111 0 12.506748-5.608915 12.506748-12.506748L436.07899 471.89425zM798.321427 355.58007999999995l-197.89839 0c-32.931131 0-59.719838-26.788708-59.719838-59.715117l0-188.248035c0-32.931131 26.788708-59.719838 59.719838-59.719838l197.89839 0c32.931131 0 59.719838 26.793429 59.719838 59.719838l0 188.248035C858.041265 328.791373 831.252558 355.58007999999995 798.321427 355.58007999999995zM810.828175 107.61220700000001c0-6.897833-5.608915-12.506748-12.506748-12.506748l-197.89839 0c-6.893111 0-12.506748 5.608915-12.506748 12.506748l0 188.248035c0 6.893111 5.608915 12.502026 12.506748 12.502026l197.89839 0c6.897833 0 12.506748-5.608915 12.506748-12.502026L810.828175 107.61220700000001zM697.035184 409.912905c85.913661 0 155.803199 69.894259 155.803199 155.803199s-69.894259 155.803199-155.803199 155.803199c-85.90894 0-155.803199-69.894259-155.803199-155.803199S611.126244 409.912905 697.035184 409.912905zM697.035184 674.306212c59.875641 0 108.590108-48.709746 108.590108-108.590108s-48.714467-108.590108-108.590108-108.590108-108.590108 48.709746-108.590108 108.590108S637.159542 674.306212 697.035184 674.306212z"  horiz-adv-x="1024" />

    
    <glyph glyph-name="logout" unicode="&#58903;" d="M681.379 19.45h-516.387c-34.546 0-62.654 28.102-62.654 62.644v603.434c0 34.545 28.105 62.65 62.654 62.65h512.833c10.849 0.007 19.676 8.894 19.676 19.801 0 9.502-6.893 17.78-16.122 19.478h-516.385c-56.204 0-101.932-45.725-101.932-101.926v-603.434c0-56.199 45.726-101.92 101.932-101.92h512.815c10.86 0 19.692 8.882 19.692 19.803 0 9.502-6.893 17.779-16.122 19.476zM953.791 399.631l-163.694 164.206c-3.707 3.713-8.643 5.756-13.9 5.756-5.287 0-10.268-2.067-14.023-5.818-7.133-7.123-7.826-18.297-1.675-26.137l133.139-133.601h-389.159c-10.857 0-19.692-8.881-19.692-19.801s8.833-19.801 19.692-19.801h389.159l-89.108-89.437-5.649-5.554-41.604-41.756c-4.103-8.169-2.832-17.593 3.3-23.733 3.659-3.659 8.613-5.678 13.958-5.678 5.875 0 11.481 2.367 15.783 6.662l10.927 10.915 29.974 30.084 5.653 5.554 116.921 117.343c3.861 3.879 5.827 9.212 5.537 15.011l-0.021 0.386 0.021 0.386c0.288 5.821-1.671 11.145-5.533 15.008z"  horiz-adv-x="1024" />

    
    <glyph glyph-name="triangle-down" unicode="&#58899;" d="M854.026 533.634l-342.026-299.265-342.026 299.265z"  horiz-adv-x="1024" />

    
    <glyph glyph-name="return1" unicode="&#58990;" d="M458.432479 575.101545l0-110.99393 0-35.31532 35.31532-0.346901c245.321288-2.367931 383.516744-111.482047 419.510516-332.599074C778.495028 251.73167 623.094726 251.800231 494.113119 251.836047l-35.680641 0 0-35.663244 0-109.391433L127.836015 340.958854 458.432479 575.101545M494.095723 644.093872 66.139861 340.958854l427.954839-303.135018L494.0947 216.172803c171.279968-0.068562 330.074577-8.706289 464.368166-248.177336 0 152.09093-25.128307 491.863381-464.368166 496.112148L494.0947 644.093872 494.095723 644.093872z"  horiz-adv-x="1024" />

    
    <glyph glyph-name="user-3" unicode="&#58921;" d="M715.267 321.852c-72.254 0-130.837-58.575-130.837-130.837s58.583-130.837 130.837-130.837c72.263 0 130.837 58.575 130.837 130.837s-58.574 130.837-130.837 130.837zM797.343 234.021l-97.576-97.581c-1.607-1.607-3.72-2.404-5.83-2.388-2.102-0.007-4.199 0.78-5.806 2.388l-54.931 54.936c-3.193 3.193-3.193 8.37 0 11.563s8.378 3.193 11.563 0l49.182-49.182 91.829 91.828c3.202 3.193 8.377 3.193 11.571 0s3.189-8.37 0-11.563zM587.1 110.848h-424.102v25.594c0 94.59 211.353 74.343 211.353 166.417 0 8.375 0.275 16.591 0.158 26.38-10.104 11.047-33.142 39.472-42.302 78.275-9.356 4.325-17.102 13.643-22.056 26.656-6.88 18.321-7.391 43.6 6.015 59.994-0.039 0.315-0.078 0.511-0.118 0.825-2.477 22.959-9.16 83.975 27.598 123.957 21.19 23.038 52.916 41.201 94.237 42.302 41.319-1.102 73.046-19.264 94.237-42.302 36.759-39.982 30.075-100.998 27.559-123.957-0.039-0.315-0.078-0.511-0.157-0.825 13.406-16.394 12.895-41.674 6.015-59.994-4.914-13.013-12.776-22.33-22.134-26.656-9.16-38.763-32.355-67.227-42.459-78.275-0.118-9.751-0.235-18.989-0.235-27.363 0-31.874 68.839-71.454 68.839-71.454s-8.761-16.72-4.932-55.531 22.485-64.043 22.485-64.043zM439.6 285.515l-21.585-105.125 21.585-23.489 21.585 23.489-21.585 105.125z"  horiz-adv-x="1024" />

    
    <glyph glyph-name="switch" unicode="&#58927;" d="M618.688 746.688v-213.376h-554.688v-85.312h896l-341.312 298.688zM405.312 21.312v213.376h554.688v85.312h-896l341.312-298.688z"  horiz-adv-x="1024" />

    
    <glyph glyph-name="add" unicode="&#58917;" d="M511.999 804.778v0zM483.347 804.778c0-13.574 0-27.147 0-40.721 0-35.427 0-70.857 0-106.284 0-49.342 0-98.686 0-148.029s0-110.636 0-165.953c0-53.353 0-106.706 0-160.058 0-43.45 0-86.894 0-130.345 0-25.603 0-51.205 0-76.81 0-3.63 0-7.259 0-10.887 0-15.62 13.033-28.653 28.653-28.653 15.62 0 28.653 13.033 28.653 28.653 0 13.574 0 27.147 0 40.721 0 35.427 0 70.857 0 106.284 0 49.344 0 98.686 0 148.029 0 55.319 0 110.636 0 165.955 0 53.353 0 106.703 0 160.054 0 43.45 0 86.896 0 130.342 0 25.603 0 51.206 0 76.81 0 3.629 0 7.257 0 10.886 0 15.619-13.033 28.653-28.653 28.653-15.619 0.001-28.653-13.033-28.653-28.653v0zM931.557 385.223v0zM931.557 413.873c-13.574 0-27.148 0-40.723 0-35.427 0-70.859 0-106.286 0-49.344 0-98.689 0-148.033 0-55.319 0-110.639 0-165.963 0-53.354 0-106.708 0-160.065 0-43.45 0-86.897 0-130.348 0-25.606 0-51.207 0-76.811 0-3.629 0-7.257 0-10.887 0-15.619 0-28.653-13.033-28.653-28.653s13.033-28.653 28.653-28.653c13.574 0 27.148 0 40.722 0 35.43 0 70.859 0 106.289 0 49.344 0 98.689 0 148.033 0 55.319 0 110.639 0 165.958 0 53.354 0 106.708 0 160.061 0 43.45 0 86.898 0 130.348 0 25.603 0 51.207 0 76.811 0 3.629 0 7.259 0 10.887 0 15.62 0 28.653 13.035 28.653 28.653s-13.033 28.653-28.653 28.653v0z"  horiz-adv-x="1024" />

    
    <glyph glyph-name="cert" unicode="&#58993;" d="M495.38939107 267.10105080999995c0.99601613-2.03673995 1.55860263-4.27094471 1.55860265-6.66908172 0-8.25997539-6.62809866-14.96507278-14.81480117-14.96507278-8.18297666 0-14.81107532 6.70385584-14.81107531 14.96507278l0 1.51761958c0 47.7491376-53.08937011 103.28507946-118.60906501 103.28507946-65.48988935 0-119.33558617-55.41423545-118.57801792-103.28507946l0-1.51761958c0-8.25997539-6.62809866-14.96507278-14.81107532-14.96507278-8.18794405 0-14.8160427 6.70385584-14.8160427 14.96507278 0 2.39689546 0.56258772 4.63110022 1.5598454 6.66908172 7.49743977 52.38147937 41.85128475 96.02112019 88.51871425 116.1401394-27.51710398 18.84853953-45.60931803 50.66515342-45.60931802 86.79741971 0 57.88812963 46.44761085 104.80394179 103.73589431 104.80394179 57.31436438 0 103.76197522-46.91581216 103.76197523-104.80394179 0-36.13350905-18.09221405-67.94888018-45.60931803-86.83840276C453.53810634 363.08243069 487.89195131 319.48253017 495.38939107 267.10105080999995L495.38939107 267.10105080999995 495.38939107 267.10105080999995zM422.85287682 470.03860992c0 41.35575977-33.19513817 74.85765132-74.13982459 74.85765132-40.93226735 0-74.1087775-33.50189155-74.10877751-74.85765132 0-41.32346994 33.17651015-74.85640977 74.10877751-74.85640977C389.65773866 395.18220015 422.85287682 428.67539846 422.85287682 470.03860992L422.85287682 470.03860992 422.85287682 470.03860992zM873.36116892 355.58002353999996l0 306.25492841c0 24.30427075-19.78121755 43.99234465-44.16248703 43.99234465l-633.04367522 0c-24.38251225 0-44.15006796-19.68683235-44.15006795-43.99234465l0-502.61033931c0-24.30923935 19.76755693-43.99482895 44.15006795-43.99482895l407.87335942 0c6.22199269-12.05402434 13.78276935-23.35048044 22.43518889-33.69066315l-442.05085189 0c-36.60171037 0-66.22882838 29.54515069-66.22882838 65.99410635l0 525.99559388c0 36.45640613 29.62711803 65.99410635 66.22882838 65.99410636l657.20388449 0c36.60295312 0 66.26111822-29.53645746 66.26111822-65.99410636l0-346.45694994C897.58471509 337.88894806999997 886.00510222 347.46535238 873.36116892 355.58002353999996L873.36116892 355.58002353999996 873.36116892 355.58002353999996zM548.8153201 318.05060255l0 33.69066315 84.00559581 0 0-33.69066315L548.8153201 318.05060255 548.8153201 318.05060255 548.8153201 318.05060255zM548.8153201 553.9175307200001l206.72291483 0 0 0 0-33.69563053-206.72291483 0L548.8153201 553.9175307200001 548.8153201 553.9175307200001 548.8153201 553.9175307200001zM755.5394777 419.13625137l-206.72291484 0 0 33.69438777 206.72291484 0 0 0L755.5394777 419.13625137 755.5394777 419.13625137 755.5394777 419.13625137zM793.38558684 327.78721447c81.71550462 0 148.20016735-66.47100211 148.20016735-148.19147412 0-81.7328923-66.48466273-148.24487626-148.20016735-148.24487625s-148.20513473 66.51198517-148.20513473 148.24487625C645.17920935 261.31497082 711.670081 327.78721447 793.38558684 327.78721447L793.38558684 327.78721447 793.38558684 327.78721447zM702.67613518 172.76024088999998l47.99379441-48.02484269 0 0 14.52170839-14.49190287c2.63782642-2.6763264 6.94851265-2.6763264 9.61614582 0l110.65211835 110.62603746c2.63534334 2.63534334 2.63534334 6.94727111 0 9.6235975l-14.50928931 14.49190287c-2.66639041 2.66639041-6.97956094 2.66639041-9.64719411 0l-91.32171568-91.30805384-43.1950361 43.23850345c-2.67135901 2.63534334-6.94727111 2.63534334-9.61863012 0l-14.49190287-14.53164437C699.98987401 179.74476921999997 699.98987401 175.43656728999997 702.67613518 172.76024088999998L702.67613518 172.76024088999998 702.67613518 172.76024088999998zM702.67613518 172.76024088999998"  horiz-adv-x="1024" />

    
    <glyph glyph-name="fenxiang" unicode="&#59012;" d="M930.208 279.008c-8.848 0-16-7.152-16-16l0-299.632c0-47.088-37.92-85.408-84.528-85.408L166.736-122.032c-46.608 0-84.528 38.32-84.528 85.408L82.208 592.576c0 47.088 37.92 85.408 84.528 85.408l216.096 0c8.832 0 16 7.168 16 16s-7.168 16-16 16L166.736 709.984c-64.256 0-116.528-52.672-116.528-117.408l0-629.184c0-64.736 52.272-117.408 116.528-117.408l662.928 0c64.256 0 116.528 52.672 116.528 117.408L946.192 263.008C946.208 271.856 939.04 279.008 930.208 279.008zM973.152 638.72c0.208 0.944 0.512 1.856 0.544 2.8 0.032 1.008-0.224 1.968-0.384 2.96-0.16 1.04-0.224 2.064-0.592 3.04-0.08 0.192-0.08 0.4-0.16 0.592-0.336 0.8-0.928 1.408-1.392 2.144-0.544 0.88-1.008 1.776-1.712 2.544-0.784 0.848-1.744 1.44-2.688 2.096-0.64 0.448-1.104 1.072-1.824 1.424l-192 96c-7.904 3.968-17.504 0.736-21.472-7.152-3.952-7.904-0.752-17.52 7.152-21.472l136.736-68.368c-516.464-40.736-624.256-580.704-625.312-586.368-1.632-8.688 4.08-17.04 12.768-18.672 0.992-0.192 2-0.288 2.976-0.288 7.552 0 14.272 5.36 15.712 13.04 1.024 5.488 106.736 535.12 616.368 561.664l-131.408-131.408c-6.256-6.256-6.256-16.368 0-22.624 3.12-3.12 7.216-4.688 11.312-4.688s8.192 1.568 11.312 4.688l159.984 159.984c0.064 0.064 0.08 0.144 0.144 0.208 1.12 1.152 2.112 2.448 2.864 3.968 0.08 0.16 0.064 0.32 0.128 0.48 0.096 0.208 0.24 0.352 0.32 0.56C972.944 636.816 972.96 637.776 973.152 638.72z"  horiz-adv-x="1024" />

    
    <glyph glyph-name="time2" unicode="&#58902;" d="M511.506 779.508c-217.459 0-394.348-177.431-394.348-395.483 0-218.002 176.889-395.532 394.348-395.532 217.459 0 394.348 177.531 394.348 395.532-0.050 218.051-176.889 395.483-394.348 395.483M511.506 29.655c-194.805 0-353.285 159.023-353.285 354.369s158.431 354.321 353.285 354.321c194.805 0 353.333-158.974 353.333-354.321s-158.529-354.369-353.333-354.369zM511.506 652.172c5.331 0 10.66 2.221 14.51 6.071 3.801 3.849 5.972 9.23 5.972 14.56s-2.122 10.66-5.923 14.51c-7.847 7.699-21.519 7.699-29.021 0-3.85-3.849-6.070-9.031-6.070-14.51 0-5.529 2.221-10.71 6.022-14.56 3.85-3.85 9.081-6.071 14.51-6.071zM238.128 398.585c-7.798 7.552-21.37 7.699-29.119 0-3.85-3.849-5.923-9.18-5.923-14.56 0-5.478 2.073-10.71 5.923-14.659 3.948-3.652 9.13-5.873 14.461-5.873 5.429 0 10.66 2.171 14.609 6.070 3.899 3.751 6.070 8.982 6.070 14.461 0 5.379-2.171 10.71-6.022 14.56zM496.996 109.906c-3.801-3.849-6.022-9.23-6.022-14.659 0-5.331 2.221-10.71 6.022-14.56 3.849-3.751 9.081-5.972 14.51-5.972 5.331 0 10.66 2.122 14.461 6.071 3.85 3.85 6.071 9.13 6.071 14.461 0 5.429-2.171 10.807-6.071 14.659-7.748 7.6-21.42 7.453-28.972 0zM813.905 398.585c-7.552 7.699-21.37 7.699-29.021 0-3.802-3.849-6.022-9.18-6.022-14.56 0-5.478 2.221-10.71 6.022-14.461 3.802-3.849 9.18-6.070 14.51-6.070 5.28 0 10.66 2.171 14.51 6.070 3.85 3.802 6.022 9.031 6.022 14.461 0 5.379-2.171 10.71-6.022 14.56zM511.506 363.443h132.222c11.303 0 20.532 9.23 20.532 20.581 0 11.401-9.278 20.581-20.532 20.581h-111.74v165.735c0 11.353-9.18 20.581-20.532 20.581s-20.482-9.23-20.482-20.581v-186.316c0-11.401 9.18-20.581 20.532-20.581z"  horiz-adv-x="1024" />

    
    <glyph glyph-name="reload-full" unicode="&#58918;" d="M881.37 385.104c0.636-202.432-164.421-367.649-367.656-368.015-202.434-0.366-367.777 164.244-368.228 366.598-0.455 203.136 163.8 368.877 365.969 369.284 204.614 0.413 369.274-163.337 369.915-367.868zM657.967 341.527c-5.542-43.86-25.816-79.1-62.213-104.13-36.387-25.023-76.656-31.73-119.371-21.023-75.892 19.021-122.475 95.283-104.843 172.127 17.597 76.697 88.264 113.914 141.486 111.496 0-23.618 0-47.263 0-71.827 44.071 29.189 87.403 57.888 131.326 86.978-43.947 29.107-87.292 57.817-131.553 87.131 0-20.033 0-39.009 0-57.97-108.802 0.13-200.227-93.714-187.828-208.891 10.704-99.438 100.202-176.695 206.318-166.508 104.035 9.987 166.798 96.616 170.152 172.616-14.426 0.002-28.84 0.002-43.471 0.002z"  horiz-adv-x="1024" />

    
    <glyph glyph-name="ewm" unicode="&#58941;" d="M278.724 508.12h19.748c5.449 0 9.874 4.426 9.874 9.875v217.23c0 5.449-4.425 9.875-9.874 9.875h-19.748c-5.449 0-9.874-4.426-9.874-9.875v-217.23c0-5.449 4.425-9.875 9.874-9.875zM387.34 508.12h59.244c5.45 0 9.875 4.426 9.875 9.875v217.23c0 5.449-4.425 9.875-9.875 9.875h-59.244c-5.449 0-9.875-4.426-9.875-9.875v-217.23c0-5.449 4.425-9.875 9.875-9.875zM723.057 508.12h19.749c5.448 0 9.873 4.426 9.873 9.875v217.23c0 5.449-4.425 9.875-9.873 9.875h-19.749c-5.449 0-9.874-4.426-9.874-9.875v-217.23c0-5.449 4.425-9.875 9.874-9.875zM644.066 389.633v-177.734c0-16.355 13.278-29.622 29.622-29.622s29.623 13.268 29.623 29.622v177.734c0 16.355-13.278 29.623-29.623 29.623s-29.622-13.268-29.622-29.623zM811.924 508.12h49.372c5.449 0 9.874 4.426 9.874 9.875v217.23c0 5.449-4.425 9.875-9.874 9.875h-49.372c-5.448 0-9.874-4.426-9.874-9.875v-217.23c0-5.449 4.426-9.875 9.874-9.875zM663.813 517.994v217.23c0 5.449-4.426 9.875-9.874 9.875h-59.245c-5.449 0-9.874-4.426-9.874-9.875v-217.23c0-5.449 4.425-9.875 9.874-9.875h59.245c5.448 0 9.874 4.426 9.874 9.875zM517.89 419.254h-359.844c-9.7 0-17.558-7.858-17.558-17.558v-359.844c0-9.699 7.858-17.558 17.558-17.558h359.844c9.699 0 17.558 7.859 17.558 17.558v359.844c0 9.7-7.858 17.558-17.558 17.558zM476.204 83.535h-276.474v276.475h276.474v-276.475zM851.42 261.268c-16.355 0-29.622-13.268-29.622-29.622v-148.111h-148.112c-16.345 0-29.622-13.268-29.622-29.623s13.278-29.623 29.622-29.623h177.734c16.355 0 29.623 13.268 29.623 29.623v177.733c0 16.355-13.269 29.622-29.623 29.622zM160.234 508.12h49.37c5.45 0 9.875 4.426 9.875 9.875v217.23c0 5.449-4.425 9.875-9.875 9.875h-49.37c-5.449 0-9.875-4.426-9.875-9.875v-217.23c0-5.449 4.425-9.875 9.875-9.875zM851.42 419.254c-16.355 0-29.622-13.268-29.622-29.623v-39.496c0-16.355 13.268-29.622 29.622-29.622s29.623 13.268 29.623 29.622v39.496c0 16.354-13.269 29.623-29.623 29.623zM298.472 162.527h78.992c10.906 0 19.748 8.852 19.748 19.749v78.992c0 10.896-8.842 19.749-19.748 19.749h-78.992c-10.906 0-19.748-8.853-19.748-19.749v-78.992c-0.001-10.897 8.841-19.749 19.748-19.749zM520.639 508.12c8.177 0 14.811 4.426 14.811 9.875v217.23c0 5.449-6.634 9.875-14.811 9.875s-14.811-4.426-14.811-9.875v-217.23c0-5.449 6.634-9.875 14.811-9.875z"  horiz-adv-x="1024" />

    
    <glyph glyph-name="play" unicode="&#58924;" d="M512-64.875c-247.5 0-448.847 201.347-448.847 448.875 0 247.5 201.347 448.847 448.847 448.847 247.5 0 448.847-201.347 448.847-448.847 0-247.528-201.347-448.875-448.847-448.875zM512 776.597c-216.478 0-392.597-176.119-392.597-392.597s176.119-392.625 392.597-392.625c216.506 0 392.597 176.147 392.597 392.625 0 216.478-176.119 392.597-392.597 392.597zM357.312 592.744l366.778-208.744-366.778-208.744zM357.312 161.194c-2.447 0-4.894 0.619-7.059 1.884-4.359 2.531-7.003 7.172-7.003 12.178v417.488c0 5.006 2.672 9.647 7.003 12.15 4.331 2.531 9.675 2.531 14.034 0.056l366.806-208.744c4.387-2.503 7.116-7.172 7.116-12.234s-2.728-9.731-7.116-12.234l-366.778-208.744c-2.222-1.181-4.613-1.8-7.003-1.8zM371.375 568.556v-369.113l324.281 184.556-324.281 184.556z"  horiz-adv-x="1024" />

    
    <glyph glyph-name="mobile" unicode="&#58965;" d="M249.4999997070313 9.185497265624917C249.4999997070313-11.686608398437556 266.2256647460938-28.499999707031293 286.777260546875-28.499999707031293L737.2227385742186-28.499999707031293C757.7268760742188-28.499999707031293 774.5000002929687-11.6454791015625 774.5000002929687 9.185497265624917L774.5000002929687 758.814502734375C774.5000002929687 779.6866092773438 757.7743361328126 796.4999997070313 737.2227385742186 796.4999997070313L286.777260546875 796.4999997070313C266.27312304687507 796.4999997070313 249.4999997070313 779.6454799804686 249.4999997070313 758.814502734375L249.4999997070313 9.185497265624917ZM286.777260546875 834L737.2227385742186 834C778.5210798828124 834 811.9999997070313 800.3615165039063 811.9999997070313 758.814502734375L811.9999997070313 9.185497265624917C811.9999997070313-32.3383045898438 778.4557323242187-66 737.2227385742186-66L286.777260546875-66C245.4789201171875-66 212.00000029296876-32.36151738281251 212.00000029296876 9.185497265624917L212.00000029296876 758.814502734375C212.00000029296876 800.3383063476563 245.54426591796863 834 286.777260546875 834ZM212.00000029296876 121.4999997070313L811.9999997070313 121.4999997070313 811.9999997070313 84.0000002929687 212.00000029296876 84.0000002929687 212.00000029296876 121.4999997070313ZM399.5 740.2499997070313C399.5 750.6053390625 408.04551757812504 759.0000002929687 417.9126939453125 759.0000002929687L606.0873051757812 759.0000002929687C616.2563559570314 759.0000002929687 624.5 750.3024899414063 624.5 740.2499997070313 624.5 729.8946612304687 615.9544815429688 721.5 606.0873051757812 721.5L417.9126939453125 721.5C407.74364404296875 721.5 399.5 730.1975094726563 399.5 740.2499997070313ZM437.0000002929687 27.750000292968707C437.0000002929687 38.10533964843762 445.06465156250005 46.5 455.3929443359375 46.5L568.6070556640625 46.5C578.7651983398437 46.5 586.9999997070313 37.802489648437586 586.9999997070313 27.750000292968707 586.9999997070313 17.3946600585939 578.9353484374999 8.999999707031293 568.6070556640625 8.999999707031293L455.3929443359375 8.999999707031293C445.2348016601562 8.999999707031293 437.0000002929687 17.697510058593707 437.0000002929687 27.750000292968707Z"  horiz-adv-x="1024" />

    
    <glyph glyph-name="delete-solid" unicode="&#58974;" d="M512 855.607c66.737 0 129.707-12.711 188.871-38.115 59.165-25.422 110.738-60.125 154.738-104.107 43.982-43.235 78.684-94.436 104.107-153.601 25.406-59.165 38.115-122.133 38.115-188.871 0-67.52-12.711-130.667-38.115-189.44-25.422-58.79-60.125-110.187-104.107-154.169-44-44-95.573-78.702-154.738-104.107-59.165-25.422-122.133-38.115-188.871-38.115-66.755 0-129.707 12.693-188.871 38.115-59.165 25.406-110.756 60.107-154.738 104.107-44 43.982-78.702 95.378-104.107 154.169-25.422 58.774-38.115 121.92-38.115 189.44 0 66.737 12.693 129.707 38.115 188.871 25.406 59.165 60.107 110.366 104.107 153.601 43.982 43.982 95.573 78.684 154.738 104.107 59.165 25.406 122.115 38.115 188.871 38.115zM754.348 196.835l-174.081 174.079 174.081 174.081-68.267 68.267-174.081-174.081-174.079 174.081-68.267-68.267 174.081-174.081-174.081-174.079 68.267-69.406 174.081 174.081 174.081-174.081 68.266 69.406z"  horiz-adv-x="1024" />

    
    <glyph glyph-name="huidingbu" unicode="&#58956;" d="M825.568 256.672l-287.392 289.28C531.808 552.352 523.488 555.424 515.2 555.36 514.08 555.456 513.12 556 512 556c-4.672 0-9.024-1.088-13.024-2.88-4.032-1.536-7.872-3.872-11.136-7.136l-259.328-258.88c-12.512-12.48-12.544-32.736-0.032-45.248 6.24-6.272 14.432-9.408 22.656-9.408 8.192 0 16.352 3.136 22.624 9.344L480 447.712 480-116c0-17.696 14.336-32 32-32s32 14.304 32 32L544 449.28l236.192-237.728c6.24-6.272 14.496-9.44 22.688-9.44s16.32 3.104 22.56 9.312C838.016 223.872 838.048 244.16 825.568 256.672zM864 620 160 620C142.336 620 128 634.336 128 652s14.336 32 32 32l704 0c17.696 0 32-14.336 32-32S881.696 620 864 620z"  horiz-adv-x="1024" />

    
    <glyph glyph-name="more" unicode="&#58934;" d="M149.538 459.413c-41.658 0-75.413-33.755-75.413-75.413s33.755-75.413 75.413-75.413 75.413 33.755 75.413 75.413-33.755 75.413-75.413 75.413zM513.418 459.413c-41.658 0-75.413-33.755-75.413-75.413s33.755-75.413 75.413-75.413 75.413 33.755 75.413 75.413-33.755 75.413-75.413 75.413zM874.462 459.413c-41.658 0-75.413-33.755-75.413-75.413s33.755-75.413 75.413-75.413 75.413 33.755 75.413 75.413-33.786 75.413-75.413 75.413z"  horiz-adv-x="1024" />

    
    <glyph glyph-name="min-screen" unicode="&#59323;" d="M670.203 509.632l88.407 88.407-37.223 37.224-88.407-88.407-83.755 83.754v-214.039h214.039l-93.061 93.061zM353.797 258.368l-88.407-88.407 37.223-37.224 88.407 88.407 88.407-88.407v214.039h-214.039l88.407-88.407zM167.676 286.286h-51.184v-297.794h297.795v51.184h-246.61v246.61zM167.676 728.324h246.61v51.184h-297.795v-297.795h51.184v246.61zM856.324 39.676h-246.61v-51.184h297.795v297.795h-51.184v-246.61zM609.714 779.508v-51.184h246.61v-246.61h51.184v297.795h-297.795z"  horiz-adv-x="1024" />

    
    <glyph glyph-name="full-screen" unicode="&#59324;" d="M442.204 346.777l-88.407-88.407-88.407 88.407v-214.039h214.039l-88.407 88.407 83.755 93.061-32.572 32.572zM758.61 421.223v209.387h-209.387l88.407-88.407-88.407-88.407 32.572-32.572 88.407 88.407 88.407-88.407zM167.676 728.324h246.61v51.184h-297.795v-297.795h51.184v246.61zM167.676 286.286h-51.184v-297.794h297.795v51.184h-246.61v246.61zM856.324 39.676h-246.61v-51.184h297.795v297.795h-51.184v-246.61zM609.714 779.508v-51.184h246.61v-246.61h51.184v297.795h-297.795z"  horiz-adv-x="1024" />

    
    <glyph glyph-name="home" unicode="&#59127;" d="M908.450816 300.60416 516.622336 689.38112c-7.640064 7.605248-20.027392 7.605248-27.68384 0L97.09056 300.60416c-7.621632-7.58784-7.621632-19.905536 0-27.490304 7.658496-7.604224 20.078592-7.604224 27.702272 0l68.000768 67.436544 0-325.85728c0-42.911744 31.673344-77.77792 74.917888-77.77792l137.133056 0c10.816512 0 19.585024 8.718336 19.585024 19.44576L424.429568 131.324672l176.303104 0c10.853376 0 19.586048 8.680448 19.586048 19.443712 0 10.728448-8.732672 17.395712-19.586048 17.395712L404.809728 168.164096c-10.816512 0-17.59232-6.670336-17.59232-17.395712L387.217408-25.888 267.677696-25.888c-21.598208 0-37.740544 19.141632-37.740544 40.582144L229.937152 377.427712l272.83456 270.72 377.977856-375.032832c3.812352-3.812352 8.822784-5.682176 13.869056-5.682176 5.01248 0 10.021888 1.869824 13.833216 5.682176C916.110336 280.71808 916.110336 293.015296 908.450816 300.60416zM796.6208 247.987968c-10.83392 0-21.243904-8.697856-21.243904-19.443712l0-213.81632c0-21.453824-15.915008-40.687616-37.512192-40.687616L600.732672-25.95968c-10.832896 0-19.61984-6.916096-19.61984-17.642496 0-10.728448 8.786944-19.443712 19.61984-19.443712l137.133056 0c43.229184 0 74.602496 34.866176 74.602496 77.775872L812.468224 228.544256C812.4672 239.290112 807.49056 247.987968 796.6208 247.987968z"  horiz-adv-x="1024" />

    
    <glyph glyph-name="tag-1" unicode="&#58948;" d="M390.554 15.923c-62.044 0-124.088 23.622-171.316 70.853-94.467 94.467-94.467 248.167 0 342.636l272.3 272.3c67.171 67.149 176.458 67.163 243.615 0 67.156-67.171 67.156-176.452 0-243.615l-247.549-247.549c-39.866-39.866-104.73-39.866-144.596 0-39.866 39.86-39.866 104.73 0 144.603l210.414 210.414c5.753 5.753 15.072 5.753 20.825 0s5.753-15.073 0-20.825l-210.415-210.414c-28.375-28.39-28.384-74.57 0-102.953 28.39-28.375 74.556-28.375 102.945 0l247.549 247.549c55.68 55.68 55.68 146.278 0 201.965-55.694 55.673-146.286 55.673-201.965 0l-272.3-272.3c-82.976-82.985-82.976-218.002 0-300.984 82.985-82.985 218.002-82.985 300.984 0l309.427 309.434c5.753 5.753 15.073 5.753 20.825 0 5.753-5.753 5.753-15.073 0-20.825l-309.427-309.435c-47.229-47.229-109.273-70.852-171.316-70.852z"  horiz-adv-x="1024" />

    
    <glyph glyph-name="minus-full" unicode="&#58931;" d="M512 864c-265.088 0-480-214.912-480-480s214.912-480 480-480 480 214.912 480 480c0 265.088-214.912 480-480 480zM768 352h-512v64h512v-64z"  horiz-adv-x="1024" />

    
    <glyph glyph-name="add-full" unicode="&#58894;" d="M512.227 865c-265.087 0-480-214.848-480-480 0-265.088 214.912-480 480-480 265.152 0 480 214.912 480 480 0 265.152-214.848 480-480 480zM736.227 353h-192v-192c0-17.664-14.336-32-32-32s-32 14.336-32 32v192h-192c-17.664 0-32 14.336-32 32s14.336 32 32 32h192v192c0 17.664 14.336 32 32 32s32-14.336 32-32v-192h192c17.664 0 32-14.336 32-32s-14.336-32-32-32z"  horiz-adv-x="1024" />

    
    <glyph glyph-name="favorite" unicode="&#58925;" d="M689.715 769.489c-73.828 0-132.364-36.914-177.188-97.559-45.352 60.645-103.359 97.559-177.188 97.559-133.418 0-242.051-117.598-242.051-262.617 0-86.484 39.023-147.129 70.137-195.645 90.175-141.856 307.969-294.258 317.461-301.641 9.492-7.383 20.039-10.547 31.114-10.547 11.075 0 21.622 3.692 31.114 10.547 9.492 7.383 227.286 160.313 317.989 301.641 31.113 48.516 70.137 109.161 70.137 195.645 0 144.492-108.633 262.617-241.523 262.617v0 0 0zM822.606 343.922c-88.067-137.637-311.133-293.203-311.133-293.203s-223.067 155.567-311.133 293.203c-32.695 50.625-61.7 99.141-61.7 165.586 0 114.961 85.957 208.3 191.953 208.3 78.575 0 134.473-51.153 164.531-123.926v0.528c2.109-7.383 8.964-13.184 16.348-13.184 7.911 0 14.238 5.273 16.348 13.184v0c30.059 72.773 85.957 123.926 164.531 123.926 105.996 0 191.953-93.34 191.953-208.301 0-66.973-29.004-115.489-61.699-166.114v0 0 0z"  horiz-adv-x="1024" />

    
    <glyph glyph-name="play-full" unicode="&#58930;" d="M512 754.778c-204.763 0-370.782-166.020-370.782-370.782 0-204.778 166.020-370.782 370.782-370.782s370.782 166.004 370.782 370.782c0 204.763-166.020 370.782-370.782 370.782zM666.463 362.647l-225.086-128.137c-20.639-11.745-37.523-2.135-37.523 21.364v256.241c0 23.499 16.882 33.11 37.523 21.365l225.086-128.127c20.639-11.746 20.639-30.967 0-42.705z"  horiz-adv-x="1024" />

    
    <glyph glyph-name="reload" unicode="&#58919;" d="M799.632 337.033c0-156.818-127.552-284.469-284.469-284.469s-284.469 127.552-284.469 284.469c0 151.579 119.245 275.471 268.846 283.677v-86.123c0-2.768 1.484-5.438 3.955-6.822 1.187-0.692 2.571-1.088 3.955-1.088 1.385 0 2.669 0.297 3.955 1.088l205.268 118.554c2.472 1.385 3.955 4.055 3.955 6.822s-1.483 5.438-3.955 6.822l-205.268 118.455c-2.472 1.385-5.438 1.385-7.911 0s-3.955-4.055-3.955-6.822v-87.704c-184.406-8.305-331.929-160.477-331.929-346.86 0-191.722 155.93-347.651 347.651-347.651 191.722 0 347.651 155.93 347.651 347.651h-63.281zM799.632 337.033z"  horiz-adv-x="1024" />

    
    <glyph glyph-name="edit2" unicode="&#59288;" d="M512 748.055642c-246.710938 0-446.708971-199.999057-446.708971-446.708971s199.999057-446.708971 446.708971-446.708971S958.708971 54.635733 958.708971 301.346671 758.710938 748.055642 512 748.055642zM512-127.958932c-237.099023 0-429.305603 192.20658-429.305603 429.305603S274.900977 730.65125 512 730.65125 941.304579 538.444671 941.304579 301.346671 749.099023-127.958932 512-127.958932zM646.555266 393.275305l-42.618127 42.618127 21.612605 21.612605 42.618127-42.618127-21.612605-21.612605ZM420.371298 167.093276l-42.618127 42.618127 221.002982 221.002982 42.618127-42.618127-221.002982-221.002982ZM355.834264 145.180935 414.281421 161.010459 371.663788 203.628092Z"  horiz-adv-x="1024" />

    
    <glyph glyph-name="ppt" unicode="&#58984;" d="M803.934 13.211h-583.868v741.577h425.665v-157.957h157.957v-583.621zM235.392 28.29h553.217v553.464h-157.957v157.957h-395.508v-711.42zM654.136 747.126l142.136-142.136h-142.136zM519.911 186.493h-7.911c-82.809 0-150.046 67.237-150.046 150.046s67.237 150.046 150.046 150.046 150.046-67.237 150.046-150.046v-7.911h-142.136v-142.136zM512 470.765c-73.911 0-134.226-60.315-134.226-134.226 0-71.438 55.865-129.776 126.316-133.979v141.889h141.889c-4.202 70.449-62.54 126.316-133.979 126.316zM527.82 178.83c78.608 0 142.136 63.528 142.136 142.136h-142.136v-142.136z"  horiz-adv-x="1024" />

    
    <glyph glyph-name="word" unicode="&#58988;" d="M527.82 305.145h33.125l11.865-79.597 17.551 79.596h32.876l17.551-79.596 11.865 79.596h33.125l-24.967-142.136h-34.113l-19.776 89.484-19.776-89.484h-34.36zM803.934 13.211h-583.868v741.577h425.665v-157.957h157.957v-583.621zM235.392 28.29h553.217v553.464h-157.957v157.957h-395.508v-711.42zM338.223 494.496h347.305v-15.82h-347.305zM338.223 305.145h157.957v-15.82h-157.957zM338.223 431.461h347.305v-15.82h-347.305zM338.223 241.864h157.957v-15.82h-157.957zM338.223 368.18h347.305v-15.82h-347.305zM338.223 178.83h157.957v-15.82h-157.957zM654.136 747.126l142.136-142.136h-142.136z"  horiz-adv-x="1024" />

    
    <glyph glyph-name="favorite-full" unicode="&#58901;" d="M511.999-4.124l-59.062 59.063c-219.374 194.062-362.813 324.843-362.813 485.154 0 130.781 101.249 232.031 232.030 232.031 71.72 0 143.436-33.75 189.844-88.595 46.406 54.846 118.126 88.595 189.844 88.595 130.782 0 232.032-101.25 232.032-232.031 0-160.314-143.437-291.093-362.813-485.155l-59.063-59.062z"  horiz-adv-x="1024" />

    
    <glyph glyph-name="sort-line" unicode="&#58907;" d="M451.9 82.131h-97.697v409.166h-119.325l217.021 218.018v-627.183zM572.588 685.468h97.697v-407.104h119.325l-217.022-218.017v625.12z"  horiz-adv-x="1024" />

    
    <glyph glyph-name="zan-full" unicode="&#58973;" d="M841.235 461.75h-209.693c81.246 300.105-55.992 315.438-55.992 315.438-58.185 0-46.108-46.002-50.501-53.667 0-146.765-155.893-261.771-155.893-261.771v-416.204c0-41.070 55.987-55.859 77.946-55.859h315.090c29.644 0 53.795 77.768 53.795 77.768 77.954 265.051 77.954 343.909 77.954 343.909 0 54.763-52.702 50.385-52.702 50.385v0zM841.235 461.75zM283.104 461.614h-125.568c-25.939 0-26.348-25.468-26.348-25.468l25.939-419.759c0-26.699 26.758-26.699 26.758-26.699h108.688c22.643 0 22.438 17.662 22.438 17.662v422.434c0 32.24-31.907 31.831-31.907 31.831v0zM283.104 461.614z"  horiz-adv-x="1024" />

    
    <glyph glyph-name="shangyi-copy" unicode="&#58885;" d="M294.592 235.659v457.061h-60.858v-457.061h-152.144l182.572-182.574 182.573 182.573h-152.144zM903.168 13.027h-91.286v60.858h91.286v-60.858zM781.454 13.027h-91.286v60.858h91.286v-60.858zM659.739 13.027h-60.858v91.286h60.858v-91.286zM903.168 226.029h-60.858v91.287h60.858v-91.287zM811.882 256.458h-91.286v60.858h91.286v-60.858zM690.167 256.459h-91.286v60.858h91.286v-60.858zM903.168 104.315h-60.858v91.286h60.858v-91.286zM659.739 134.743h-60.858v91.286h60.858v-91.286zM659.739 499.889v182.571h182.574v-182.571h-182.574zM598.88 439.031h304.288v304.286h-304.288v-304.286z"  horiz-adv-x="1024" />

    
    <glyph glyph-name="exam1" unicode="&#58992;" d="M704.512 501.418667H426.666667c-11.946667 0-21.504-9.557333-21.504-21.504s9.557333-21.504 21.504-21.504h277.845333c11.946667 0 21.504 9.557333 21.504 21.504-0.341333 11.946667-9.898667 21.504-21.504 21.504zM704.512 351.914667H426.666667c-11.946667 0-21.504-9.557333-21.504-21.504s9.557333-21.504 21.504-21.504h277.845333c11.946667 0 21.504 9.557333 21.504 21.504-0.341333 11.946667-9.898667 21.504-21.504 21.504zM330.410667 480.256m-32.085334 0a32.085333 32.085333 0 1 1 64.170667 0 32.085333 32.085333 0 1 1-64.170667 0ZM330.410667 330.410667m-32.085334 0a32.085333 32.085333 0 1 1 64.170667 0 32.085333 32.085333 0 1 1-64.170667 0ZM704.512 202.410667H426.666667c-11.946667 0-21.504-9.557333-21.504-21.504s9.557333-21.504 21.504-21.504h277.845333c11.946667 0 21.504 9.557333 21.504 21.504-0.341333 11.946667-9.898667 21.504-21.504 21.504zM813.738667 737.962667h-129.365334V738.986667c0 34.816-28.330667 63.146667-63.146666 63.146666h-218.453334c-34.816 0-63.146667-28.330667-63.146666-63.146666v-1.024h-129.706667c-34.816 0-62.805333-28.330667-62.805333-63.146667V29.01333299999999c0-34.816 28.330667-63.146667 62.805333-63.146666h603.477333c34.816 0 62.805333 28.330667 62.805334 63.146666V674.816c0.341333 34.816-27.648 63.146667-62.464 63.146667zM385.024 738.986667c0 9.557333 8.192 17.749333 17.749333 17.749333h218.453334c9.898667 0 17.749333-8.192 17.749333-17.749333v-90.112c0-9.557333-8.192-17.749333-17.749333-17.749334h-218.453334c-9.898667 0-17.749333 8.192-17.749333 17.749334V738.986667z m446.464-709.973334c0-9.898667-8.192-18.090667-17.749333-18.090666H210.261333c-9.898667 0-17.749333 7.850667-17.749333 18.090666V674.816c0 9.898667 8.192 18.090667 17.749333 18.090667h129.706667v-43.690667c0-34.816 28.330667-63.146667 63.146667-63.146667h218.453333c34.816 0 63.146667 28.330667 63.146667 63.146667V692.906667h129.365333c9.898667 0 17.749333-7.850667 17.749333-18.090667V29.01333299999999zM330.410667 180.90666699999997m-32.085334 0a32.085333 32.085333 0 1 1 64.170667 0 32.085333 32.085333 0 1 1-64.170667 0Z"  horiz-adv-x="1024" />

    
    <glyph glyph-name="tick" unicode="&#58964;" d="M407.142 101.929l-279.673 279.673 69.906 69.907 209.768-209.768 419.485 419.534 69.907-69.955z"  horiz-adv-x="1024" />

    
    <glyph glyph-name="question" unicode="&#58976;" d="M760.7249755859376 37.9306640625h54.38150024414062v52.30755615234375h-54.38150024414062v-52.30755615234375zM808.4808959960938 378.0698547363281c-71.38751220703126 2.1744689941406246-114.2523193359375-30.009155273437507-128.48895263671872-96.50555419921874l47.76004028320313-11.4697265625c9.8876953125 44.691558837890625 34.014495849609375 66.49557495117188 72.47598266601562 65.40545654296876 32.925201416015625-2.1744689941406246 51.070770263671875-18.5394287109375 54.38150024414062-49.043792724609375 2.1744689941406246-20.7147216796875-12.656249999999998-41.97326660156249-44.49462890625-63.77645874023437-29.6630859375-20.7147216796875-43.94998168945313-46.374114990234375-42.81454467773437-76.87600708007812v-17.99807739257812h42.81454467773437v14.731842041015625c-1.08599853515625 22.890014648437504 11.519165039062502 42.51873779296874 37.86822509765625 58.88287353515625 41.726898193359375 26.153778076171875 61.50146484375 56.11267089843749 59.326171875 89.92941284179688-5.4876708984375 54.53146362304687-38.4136962890625 83.45297241210939-98.82669067382811 86.71426391601562zM708.0260314941406 532.5626220703125v14.83154296875c0 1.38427734375-2.916046142578125 2.471099853515625-6.525054931640624 2.471099853515625h-458.2971496582031c-3.606536865234375 0-6.525054931640624-1.0892944335937502-6.525054931640624-2.471099853515625v-14.83154296875c0-1.38427734375 2.9185180664062496-2.471099853515625 6.525054931640624-2.471099853515625h458.2452392578125c3.606536865234375 0 6.5753173828125 1.0892944335937502 6.5753173828125 2.471099853515625zM236.67794799804688 391.4165954589843v-14.83154296875c0-1.38427734375 2.9185180664062496-2.471099853515625 6.525054931640624-2.471099853515625h288.07470703124994c3.609832763671875 0 6.526702880859375 1.08599853515625 6.526702880859375 2.471099853515625v14.83154296875c0 1.38427734375-2.9185180664062496 2.471099853515625-6.526702880859375 2.471099853515625h-288.07470703124994c-3.606536865234375 0-6.525054931640624-1.08599853515625-6.525054931640624-2.471099853515625zM243.2030029296875 237.9093017578125c-3.606536865234375 0-6.525054931640624-1.0892944335937502-6.525054931640624-2.471099853515625v-14.83154296875c0-1.38427734375 2.9185180664062496-2.4735717773437496 6.525054931640624-2.4735717773437496h432.0436706542968c3.609832763671875 0 6.525054931640624 1.0892944335937502 6.525054931640624 2.4735717773437496v14.83154296875c0 1.38427734375-2.916046142578125 2.471099853515625-6.525054931640624 2.471099853515625h-432.0436706542968zM141.85659790039062 142.64053344726562v482.7156372070312c0 47.76004028320313 38.85946655273437 86.61621093750001 86.61621093750001 86.61621093750001h527.01416015625c47.80700683593751 0 86.6656494140625-38.85946655273437 86.6656494140625-86.61621093750001v-162.05850219726562h19.775390625v162.05850219726562c0 58.684295654296875-47.76004028320313 106.43939208984376-106.44186401367189 106.43939208984376h-527.01416015625c-58.684295654296875 0-106.44186401367189-47.76004028320313-106.44186401367189-106.43939208984376v-482.7156372070312c0-58.73455810546875 47.76004028320313-106.44186401367189 106.44186401367189-106.44186401367189h448.6055603027344v19.775390625h-448.6055603027344c-47.76004028320313 0-86.61621093750001 38.85946655273437-86.61621093750001 86.6656494140625z"  horiz-adv-x="1024" />

    
    <glyph glyph-name="sina" unicode="&#58935;" d="M511.258 834c-248.118 0-449.258-201.14-449.258-449.258s201.14-449.258 449.258-449.258c248.119 0 449.258 201.14 449.258 449.258 0 248.119-201.14 449.258-449.258 449.258v0zM717.474 267.72c-8.080-15.61-19.975-30.563-35.684-44.853-15.709-14.291-34.102-27.115-55.177-38.472-21.075-11.357-45.746-20.416-74.010-27.175-28.263-6.76-57.788-10.147-88.571-10.158-30.783-0.012-60.802 3.643-90.056 10.966-29.255 7.322-55.508 17.475-78.759 30.458-23.253 12.983-41.975 29.462-56.168 49.437-14.193 19.975-21.29 41.755-21.29 65.338 0 25.11 7.586 51.853 22.757 80.227 15.171 28.375 36.729 56.534 64.677 84.481 36.895 36.895 74.169 62.653 111.822 77.275 37.653 14.622 64.56 13.857 80.722-2.292 14.193-13.973 16.375-36.785 6.547-68.436-0.869-3.056-0.978-5.239-0.33-6.547 0.649-1.308 1.743-2.074 3.282-2.292 1.54-0.22 3.124-0.166 4.749 0.166 1.626 0.33 3.099 0.714 4.419 1.155l1.961 0.66c30.341 12.884 57.194 19.328 80.557 19.328s40.062-6.657 50.097-19.971c9.83-13.753 9.83-33.185 0-58.295-0.44-2.835-0.929-5.018-1.467-6.547-0.538-1.527-0.050-2.892 1.467-4.088 1.516-1.199 2.823-2.018 3.925-2.457 1.101-0.44 2.959-1.095 5.574-1.961 12.444-3.925 23.686-9.053 33.723-15.384 10.036-6.333 18.772-15.226 26.205-26.681 7.433-11.454 11.144-24.169 11.131-38.142l0.018-0.055c0-14.841-4.041-30.067-12.122-45.679l0.002-0.005zM723.196 482.197c2.726-13.436 2.017-26.259-2.127-38.472-1.748-5.026-4.97-8.735-9.664-11.131-4.694-2.396-9.554-2.83-14.579-1.301-5.026 1.748-8.735 4.97-11.13 9.664-2.396 4.694-2.83 9.554-1.301 14.579 4.365 13.753 1.743 25.868-7.867 36.345-9.609 10.478-21.289 14.296-35.043 11.461-5.244-1.088-10.158-0.214-14.744 2.622-4.583 2.835-7.31 6.878-8.178 12.122-1.088 5.244-0.214 10.104 2.622 14.579 2.835 4.474 6.877 7.256 12.122 8.344 13.093 2.835 26.083 2.238 38.967-1.797 12.884-4.034 23.912-11.187 33.081-21.455v-0.018c9.169-10.258 15.116-22.102 17.843-35.538l-0.002-0.002zM797.041 419.17c-1.969-5.892-5.678-10.257-11.13-13.093-5.452-2.835-11.131-3.269-17.035-1.301-5.904 1.969-10.269 5.678-13.093 11.13-2.823 5.453-3.368 11.131-1.631 17.035 6.112 17.897 7.206 36.669 3.282 56.315-3.925 19.645-12.658 36.89-26.205 51.73-13.534 15.062-29.689 25.483-48.466 31.266-18.779 5.783-37.658 6.712-56.646 2.787-6.112-1.309-11.791-0.269-17.035 3.118-5.244 3.386-8.521 8.136-9.83 14.249-1.309 6.113-0.269 11.736 3.118 16.871 3.386 5.135 8.136 8.356 14.249 9.664 26.845 5.674 53.479 4.419 79.897-3.759 26.418-8.178 49.12-22.86 68.106-44.047v-0.018c18.998-20.953 31.277-45.238 36.841-72.855 5.563-27.617 4.088-53.98-4.419-79.091h-0.001zM599.602 370.393c-17.458 16.162-40.214 28.057-68.27 35.684-28.057 7.628-58.020 9.921-89.892 6.878-48.68-5.026-89.010-20.47-120.991-46.339-31.98-25.868-46.442-54.738-43.387-86.608 1.969-20.953 11.68-39.511 29.138-55.672 17.458-16.163 40.214-28.057 68.27-35.684 28.057-7.628 58.020-9.922 89.892-6.877 48.68 5.026 89.010 20.47 120.991 46.339 31.98 25.868 46.442 54.738 43.387 86.608-1.97 20.953-11.68 39.51-29.138 55.672zM526.562 262.293v0.018c-9.83-22.262-27.072-38.637-51.728-49.126-24.658-10.488-49.108-11.797-73.351-3.925-23.363 7.42-39.463 21.228-48.3 41.424-8.839 20.197-8.129 40.66 2.127 61.394 10.257 20.306 26.792 35.478 49.603 45.514 22.81 10.036 45.79 12.11 68.93 6.218 24.232-6.333 41.529-19.376 51.895-39.133 10.367-19.757 10.641-40.551 0.825-62.386l0.001 0.001zM465.003 312.079c-3.056 1.088-6.167 1.033-9.334-0.166s-5.513-3.215-7.043-6.052c-3.717-6.773-2.3-11.687 4.253-14.744 3.056-1.088 6.222-1.033 9.5 0.166 3.278 1.199 5.678 3.215 7.206 6.052v0.018c1.748 2.835 2.133 5.728 1.155 8.674-0.978 2.947-2.891 4.964-5.739 6.052h0.003zM427.666 296.694c-7.42 3.056-15.392 3.166-23.912 0.33s-15.067-7.854-19.639-15.054c-4.804-7.42-6.223-14.896-4.253-22.428 1.969-7.53 6.662-13.044 14.083-16.54 7.42-3.496 15.55-3.772 24.389-0.825 8.839 2.947 15.66 8.129 20.465 15.55h0.018c4.583 7.42 5.783 14.952 3.595 22.591-2.187 7.64-7.103 13.099-14.744 16.375l-0.002 0.001z"  horiz-adv-x="1024" />

    
    <glyph glyph-name="mark" unicode="&#59159;" d="M826.648 340.055l-100.195 166.992 100.195 166.992c0 1.758 1.758 5.273 1.758 8.789 0 10.547-7.031 17.578-17.578 17.578h-263.672v52.734c0 10.547-7.031 17.578-17.578 17.578h-316.406c-10.547 0-17.578-7.031-17.578-17.578v-738.281c0-10.547 7.031-17.578 17.578-17.578s17.578 7.031 17.578 17.578v369.141h210.938v-52.734c0-10.547 7.031-17.578 17.578-17.578h351.563c10.547 0 17.578 7.031 17.578 17.578 0 3.516-1.758 7.031-1.758 8.789v0zM230.75 419.156v316.406h281.25v-316.406h-281.25zM476.844 348.844v35.156h52.734c10.547 0 17.578 7.031 17.578 17.578v263.672h232.031l-89.648-149.414c0-1.758-1.758-5.273-1.758-8.789s1.758-7.031 3.516-8.789v0l89.648-149.414h-304.102z"  horiz-adv-x="1024" />

    
    <glyph glyph-name="hand-right" unicode="&#58928;" d="M992.242 555.395c-17.98 38.312-50.746 57.3-93.259 57.804-55.283 0.504-110.398 0.168-165.682 0.168-92.587 0-185.174 0-280.785 0 15.123 13.275 28.23 25.037 41.84 36.127 52.763 43.017 45.705 122.833-25.205 153.583-40.664 17.644-79.648 9.746-113.423-19.828-61.837-54.107-123.337-108.382-184.67-162.489-6.049-5.209-11.594-7.73-19.828-7.73-37.808 0.336-75.615 0-113.423 0.336-6.889 0-9.914-1.176-9.914-9.242 0.168-179.965 0.168-360.265 0-540.566 0-6.721 1.68-8.57 8.57-8.57 39.32 0.168 78.808 0 118.128 0.168 7.057 0 13.275-1.344 19.324-4.537 28.062-15.291 56.123-30.246 84.353-45.369 5.209-2.857 10.418-4.033 16.467-4.033 99.644 0 199.12 0 298.429 0 10.922 0 21.172 1.68 31.59 4.369 52.091 12.603 70.91 52.427 68.222 90.906-1.344 16.803-7.562 31.758-17.644 45.369 34.783 9.914 62.173 28.062 74.607 62.341 12.603 35.287 2.857 66.373-22.517 92.251 49.906 34.111 61.837 77.128 33.103 130.731 52.091 0 103.341 0 154.255 0 11.594 0 23.021 1.008 34.279 4.537 56.628 16.971 86.538 74.103 63.181 123.673zM150.054 106.24c0-8.066-2.016-10.082-9.914-9.914-20.836 0.504-42.009 0.336-63.013 0-6.049-0.168-7.394 1.512-7.394 7.562 0.168 154.087 0.168 308.175 0 462.094 0 6.217 1.512 8.066 7.898 7.898 21.34-0.336 42.681-0.336 64.021 0 6.889 0.168 8.402-1.848 8.402-8.57-0.168-76.624-0.168-153.079-0.168-229.703 0-76.287-0.336-152.911 0.168-229.367zM958.131 523.636c-2.184-20.836-22.181-41-45.705-45.369-6.385-1.176-12.771-1.512-19.156-1.512-76.119-0.168-152.575-0.168-228.694 0.168-8.066 0-11.258-2.016-9.914-10.082 0.168-1.176 0-2.521 0-3.865 0-8.066-2.184-16.971 0.504-24.029 3.025-7.73 14.115-3.865 21.172-7.225 7.898-3.697 15.795-7.562 22.181-13.611 24.701-23.189 19.324-59.82-10.922-77.464-13.779-7.898-28.734-9.41-44.025-8.402-7.394 0.336-11.090-1.344-9.578-9.41 0.168-1.512 0-3.361 0-4.873 0-8.066-2.016-16.803 0.504-24.029 3.193-8.402 13.947-3.529 21.004-6.889 8.738-4.537 17.476-8.402 24.197-15.795 33.271-35.791 1.344-75.783-29.574-82.169-17.308-3.697-34.615-1.176-52.091-2.016-7.73-0.336-17.644 3.361-22.181-1.344-4.873-4.705-1.008-14.787-1.512-22.349 0-0.336 0-0.504 0-1.008 0-15.123 0-14.787 14.283-18.484 12.435-3.025 23.861-8.738 32.263-18.484 10.922-12.771 17.308-27.558 10.922-44.529-7.394-20.332-22.517-32.599-43.521-36.968-5.545-1.176-11.426-1.512-17.308-1.68-95.275 0-190.551 0-285.826-0.168-5.545 0-10.586 1.176-15.459 4.033-24.029 14.451-48.058 28.902-72.255 43.017-5.041 2.857-7.225 5.881-7.225 11.93 0.168 160.473 0.168 320.945 0 481.586 0 5.041 0.84 8.906 5.041 12.603 62.341 54.611 124.681 109.726 186.854 164.505 21.34 18.82 45.705 21.844 71.246 12.266 37.64-14.115 45.201-55.451 15.291-82.337-35.287-31.758-70.91-63.013-106.534-94.435-4.873-4.537-9.914-8.906-16.971-15.459 32.599 0 62.005 0 91.579 0 152.575 0 304.814 0 457.389 0 9.746 0 19.156-1.008 28.566-4.873 23.861-9.41 37.808-29.406 35.455-51.25z"  horiz-adv-x="1029" />

    
    <glyph glyph-name="arrow-right-circle-full" unicode="&#58881;" d="M512 6.073c209.287 0 378.948 169.66 378.948 378.948s-169.66 378.948-378.948 378.948c-209.287 0-378.948-169.66-378.948-378.948 0-209.287 169.66-378.948 378.948-378.948zM432.789 511.336l37.895 37.895 164.211-164.211-164.211-164.211-37.895 37.895 126.316 126.316-126.316 126.316z"  horiz-adv-x="1024" />

    
    <glyph glyph-name="setting" unicode="&#58923;" d="M392.515-71.317l-187.835 105.126 12.397 19.083c14.228 21.877 21.45 49.167 21.45 81.095 0 80.822-70.721 149.114-154.434 149.114h-21.307l-0.081 213.014h21.299c85.059 0 159.678 69.681 159.678 149.114 0 21.795-4.926 43.222-14.637 63.687l-7.904 16.706 180.446 119.142 11.379-19.322c27.138-46.162 74.918-73.703 127.791-73.703 48.414 0 92.489 23.262 120.866 63.822l11.717 16.742 163.893-104.762-8.346-17.065c-10.825-22.148-20.538-43.793-20.538-65.246 0-80.817 63.417-149.114 138.46-149.114h21.305v-213.014h-21.305c-75.088 0-138.547-68.293-138.547-149.114 0-11.226 6.542-24.452 12.867-37.254 3.153-6.366 6.223-12.613 8.669-18.683l6.498-15.997-155.375-104.698-11.565 19.15c-26.947 44.582-75.962 72.275-127.941 72.275-62.115 0-118.458-38.941-140.163-96.877l-8.737-23.221zM263.835 49.548l107.657-60.261c32.935 61.925 98.433 102.098 169.922 102.098 59.328 0 115.623-28.031 151.715-74.428l89.952 60.605c-0.045 0.105-0.084 0.19-0.147 0.298-8.099 16.384-17.278 34.933-17.278 56.127 0 96.308 71.253 178.767 159.851 190.332v130.579c-88.559 11.57-159.763 94.026-159.763 190.332 0 23.837 7.498 45.927 16.742 66.718l-98.563 63.011c-36.274-42.071-87.426-65.825-143.168-65.825-60.65 0-116.034 28.054-152.1 76.068l-113.899-75.215c7.649-20.986 11.527-42.691 11.527-64.758 0-97.116-80.884-180.149-180.98-190.605l0.086-130.090c97.217-10.715 175.738-93.62 175.738-190.544-0.001-31.483-5.795-59.795-17.294-84.441v0zM263.835 49.548zM520.879 250.978c-44.133 0-86.762 19.257-116.326 54.448-53.977 64.285-45.605 160.483 18.701 214.462 57.602 48.42 143.337 47.077 199.299-3.043 5.433-4.86 10.521-10.141 15.168-15.679 31.975-38.068 43.323-89.53 30.373-137.609l-41.154 11.097c9.351 34.636 1.194 71.681-21.859 99.117-3.426 4.091-7.095 7.863-10.951 11.31-40.301 36.064-101.968 36.999-143.491 2.155-22.45-18.834-36.189-45.27-38.725-74.45-2.53-29.165 6.436-57.585 25.265-80.013 28.89-34.401 75.133-47.647 117.887-33.781l13.14-40.517c-15.615-5.028-31.57-7.497-47.333-7.497v0zM520.879 250.978z"  horiz-adv-x="1024" />

    
    <glyph glyph-name="message" unicode="&#58971;" d="M609.344-30.657c-3.84 0-7.553 1.344-10.56 4.031l-200.767 176.001h-270.016c-44.096 0-80.001 35.904-80.001 80.001v474.624c0 44.096 35.904 80.001 80.001 80.001h768.001c44.096 0 80.001-35.904 80.001-80.001v-474.688c0-44.096-35.904-80.001-80.001-80.001h-270.654v-164.030c0-6.27-3.713-12.029-9.345-14.59-2.174-0.962-4.416-1.344-6.656-1.344zM128 752.003c-26.494 0-48.001-21.504-48.001-48.001v-474.688c0-26.432 21.504-48.001 48.001-48.001h276.032c3.906 0 7.616-1.406 10.56-4.031l178.752-156.672v144.704c0 8.831 7.168 15.999 16.002 15.999h286.655c26.432 0 48.001 21.568 48.001 48.001v474.688c0 26.498-21.568 48.001-48.001 48.001h-768.001zM650.688 547.969h-277.377c-8.831 0-16.002 7.168-16.002 15.999s7.168 16.002 16.002 16.002h277.377c8.831 0 16.002-7.168 16.002-16.002s-7.168-16.002-16.002-16.002zM650.688 418.687h-277.377c-8.831 0-16.002 7.168-16.002 16.002s7.168 15.999 16.002 15.999h277.377c8.831 0 16.002-7.168 16.002-15.999s-7.168-16.002-16.002-16.002z"  horiz-adv-x="1024" />

    
    <glyph glyph-name="mail" unicode="&#58891;" d="M821.522 53.291h-621.781c-45.719 0-82.89 37.173-82.89 82.914v497.411c0 45.693 37.172 82.89 82.89 82.89h621.781c45.719 0 82.89-37.196 82.89-82.89v-82.914c0-9.826-6.842-18.047-15.991-20.178-23.662-9.524-237.013-130.286-367.474-205.056-6.692-3.809-14.914-3.609-21.431 0.476l-227.989 145.101c-9.65 6.142-12.508 18.95-6.367 28.625 6.166 9.65 18.95 12.481 28.624 6.34l217.413-138.357c236.536 135.5 320.276 180.918 351.784 196.108v69.855c0 22.859-18.624 41.433-41.457 41.433h-621.781c-22.835 0-41.433-18.572-41.433-41.433v-497.411c0-22.858 18.598-41.457 41.433-41.457h621.781c22.834 0 41.457 18.599 41.457 41.457v248.693c0 11.454 9.249 20.728 20.705 20.728s20.729-9.275 20.729-20.728v-248.693c-0.001-45.741-37.172-82.914-82.891-82.914z"  horiz-adv-x="1024" />

    
    <glyph glyph-name="user" unicode="&#58897;" d="M756.798 253.909c-7.515 7.514-19.687 7.514-27.201 0-7.494-7.515-7.494-19.706 0.019-27.219 58.139-58.138 90.146-135.415 90.146-217.616 0-10.632 8.603-19.235 19.236-19.235s19.235 8.602 19.235 19.235c0 92.476-36.029 179.43-101.437 244.837zM511.999 778.163c-127.282 0-230.823-103.54-230.823-230.823 0-90.788 52.685-169.482 129.082-207.155-53.468-16.356-102.443-45.652-143.077-86.295-65.407-65.388-101.417-152.342-101.417-244.817 0-10.632 8.603-19.235 19.235-19.235s19.235 8.602 19.235 19.235c0 82.201 32.009 159.479 90.147 217.616 56.031 56.048 129.901 87.803 208.818 90.012 2.921-0.111 5.853-0.185 8.799-0.185 127.282 0 230.824 103.539 230.824 230.823-0.001 127.282-103.541 230.823-230.824 230.823zM515.113 355.026c-1.029 0.169-2.077 0.28-3.152 0.28-2.926-0.001-5.845-0.037-8.76-0.111-101.989 4.617-183.553 89.036-183.553 192.143 0 106.056 86.295 192.352 192.352 192.352s192.352-86.295 192.352-192.352c-0.001-105.016-84.615-190.643-189.24-192.313z"  horiz-adv-x="1024" />

    
    <glyph glyph-name="user-1" unicode="&#58922;" d="M404.6 496.114c7.378-60.935 59.841-124.009 107.297-124.009 54.695 0 106.61 66.309 114.718 124.009 3.097 2.187 8.152 7.468 10.019 19.491 0 0 11.659 41.854-3.826 37.298 5.375 16.124 23.226 78.832-11.385 117.861 0 0-16.165 22.088-55.559 33.838l-18.444 6.33c-7.196 5.283-21.816 17.716-21.816 31.469 0 0-9.107-4.234-14.503-12.022 2.117 6.33 5.668 12.386 11.385 17.259 0 0-5.99-3.144-11.547-9.837-4.282-2.413-14.117-9.061-17.397-21.085l0.252 0.865c0 0-2.026 2.642-7.515 3.463-5.418 0.774-14.914-2.87-14.914-2.87s-57.404-22.452-74.051-74.095c0 0-9.837-23.408 3.097-91.993-18.399 8.697-5.829-36.48-5.829-36.48 1.912-12.024 6.967-17.305 10.019-19.492zM509.207 735.524c-2.823-3.87-5.214-8.744-6.352-14.664l-2.050 0.728c1.548 5.102 4.258 9.791 8.401 13.936zM753.788 299.423c-14.984 33.29-106.637 62.208-106.637 62.208-48.887 17.215-49.253 34.384-49.253 34.384-96.021-189.361-169.026-0.546-169.026-0.546-6.695-25.548-105.611-55.514-105.611-55.514-28.874-11.111-41.078-27.782-41.078-27.782-42.717-63.347-47.772-204.432-47.772-204.432 0.569-32.198 14.483-35.567 14.483-35.567 98.277-43.858 252.433-51.646 252.433-51.646 158.346-3.325 273.588 44.951 273.588 44.951 16.692 10.656 17.193 18.945 17.193 18.945 11.706 101.054-38.321 215-38.321 215zM538.558 210.607l-27.493-96.795-26.707 96.795 17.215 48.004-22.822 29.904 10.23 18.887c0 0 21.051-14.46 44.857 0l9.542-18.887-22.133-29.904 17.311-48.004z"  horiz-adv-x="1024" />

    
    <glyph glyph-name="type" unicode="&#58908;" d="M513.537 100.684l-334.178 153.787-62.428-26.593 396.605-182.502 393.533 182.502-61.925 26.593zM513.537 260.537l-334.178 153.78-62.428-26.583 396.605-182.506 393.533 182.506-61.925 26.583zM907.069 553.66l-393.533 168.965-396.605-168.965 396.606-182.502 393.532 182.502zM229.824 551.725l283.258 120.691 281.095-120.691-281.096-130.364-283.257 130.364z"  horiz-adv-x="1024" />

    
    <glyph glyph-name="bus" unicode="&#58932;" d="M749.008 105.914v0-46.355c0-12.79-10.59-23.174-23.687-23.174h-71.093c-13.097 0-23.715 10.383-23.715 23.174v46.355h-237.008v-46.355c0-12.79-10.608-23.174-23.704-23.174h-71.105c-13.083 0-23.704 10.383-23.704 23.174v46.355c-26.181 0-47.403 20.752-47.403 46.35v486.663c0 25.597 44.93 46.35 71.107 46.35 0 0 95.462 46.338 213.306 46.338 119.152 0 237.007-46.338 237.007-46.338 26.194 0 47.403-20.753 47.403-46.35v-486.663c0.016-25.583-21.209-46.35-47.402-46.35v0 0zM334.257 175.452c32.726 0 59.251 25.931 59.251 57.935 0 31.999-26.523 57.93-59.251 57.93-32.73 0-59.251-25.93-59.251-57.93 0-32.002 26.52-57.935 59.251-57.935v0 0zM606.823 685.291h-189.616c-13.083 0-23.702-10.383-23.702-23.176 0-12.806 10.619-23.174 23.702-23.174h189.616c13.098 0 23.69 10.369 23.69 23.174 0 12.777-10.594 23.176-23.69 23.176v0 0zM749.008 546.222c0 12.806-10.59 23.176-23.687 23.176h-426.611c-13.085 0-23.705-10.369-23.705-23.176v-139.040c0-12.792 10.609-23.18 23.705-23.18h426.611c13.098 0 23.687 10.387 23.687 23.18v139.040zM689.76 291.316c-32.726 0-59.246-25.93-59.246-57.93 0-32.002 26.52-57.935 59.246-57.935 32.729 0 59.251 25.931 59.251 57.935-0.001 32-26.521 57.93-59.251 57.93v0 0z"  horiz-adv-x="1024" />

    
    <glyph glyph-name="bangzhu" unicode="&#59168;" d="M512.002558 784.647913c107.019409 0 207.623711-41.678238 283.284925-117.362988 75.680657-75.674517 117.360941-176.280866 117.360941-283.286971 0-107.022479-41.678238-207.625758-117.362988-283.286971-75.673493-75.679633-176.278819-117.358895-283.281855-117.358895-107.025549 0-207.630874 41.678238-283.292088 117.360941-75.679633 75.676563-117.358895 176.282912-117.358895 283.284925 0 107.018386 41.678238 207.624734 117.360941 283.289018C304.390104 742.968651 404.998499 784.647913 512.002558 784.647913M512.002558 831.719998c-119.596865 0-232.014214-46.582945-316.576145-131.148969-84.561931-84.541465-131.146922-196.975187-131.146922-316.573075 0-119.594819 46.584991-232.013191 131.146922-316.570006 84.561931-84.587514 196.9977-131.146922 316.576145-131.146922 119.575376 0 232.010121 46.581921 316.567959 131.146922 84.569094 84.540442 131.148969 196.975187 131.148969 316.570006 0 119.597889-46.580898 232.013191-131.148969 316.573075C744.011656 785.1564960000001 631.597377 831.719998 512.002558 831.719998L512.002558 831.719998zM511.999488 199.82432700000004M635.508453 603.4173149999999c-29.627784 26.409486-68.285223 39.634696-115.995851 39.634696-54.130851 0-96.895841-15.895015-128.330784-47.706535-31.428803-31.813566-47.136553-75.1557-47.136553-130.048915l0.060375 0c0.829901-17.228383 15.057951-30.94171 32.492018-30.94171s31.66314 13.713326 32.494065 30.94171l0.021489 0c0 0.413416 0.007163 0.819668 0.00921 1.231037 0.001023 0.119727 0.00921 0.23843 0.00921 0.360204 0 0.068562-0.005117 0.138146-0.005117 0.206708 0.518816 81.388658 36.263925 122.102942 107.314121 122.102942 27.443026 0 50.081629-7.968485 67.905576-23.865547s26.746154-36.285414 26.746154-61.164035c0-28.968775-16.530488-58.347896-49.638537-88.10257l-24.626887-21.935592c-24.115234-21.533432-39.590694-40.268122-46.372144-56.164161-6.78145-15.915481-10.168594-41.564651-10.168594-76.957743l0.008186-0.080841c-0.080841-0.900509-0.128937-1.810229-0.128937-2.731204 0-16.733103 13.563924-30.293957 30.293957-30.293957 15.963577 0 29.031197 12.345166 30.199813 28.009937l0.073678 0.089028 0.334621 11.158131c0 36.427654 17.291828 68.730361 51.92051 96.957239 57.988716 47.432289 86.962607 92.850711 86.962607 136.193869C679.952688 542.63395 665.140331 576.989409 635.508453 603.4173149999999zM511.999488 152.90266799999995m-40.932248 0a40 40 0 1 1 81.864496 0 40 40 0 1 1-81.864496 0Z"  horiz-adv-x="1024" />

    
    <glyph glyph-name="move-up-copy" unicode="&#58895;" d="M721.147 542.23v-487.532h64.915v487.532h162.287l-194.743 194.745-194.745-194.745h162.287zM71.999 779.705h97.372v-64.915h-97.372v64.915zM201.828 779.705h97.372v-64.915h-97.372v64.915zM331.657 779.705h64.915v-97.372h-64.915v97.372zM71.999 552.502h64.915v-97.373h-64.915v97.373zM169.371 520.044h97.372v-64.915h-97.372v64.915zM299.2 520.044h97.372v-64.915h-97.372v64.915zM71.999 682.331h64.915v-97.372h-64.915v97.372zM331.657 649.874h64.915v-97.372h-64.915v97.372zM331.657 260.385v-194.742h-194.745v194.742h194.745zM396.573 325.3h-324.574v-324.572h324.574v324.572z"  horiz-adv-x="1024" />

    
    <glyph glyph-name="jifen3" unicode="&#59003;" d="M510.721379 369.321696c247.158123 0 447.5225 103.546308 447.5225 231.42786 0 127.881552-200.36233 231.42786-447.5225 231.42786-247.162216 0-447.5225-103.546308-447.5225-231.42786C63.198879 472.869027 263.559163 369.321696 510.721379 369.321696zM510.719332 773.278981c215.225853 0 389.700583-77.247338 389.700583-172.528402 0-95.284133-174.47473-172.530448-389.700583-172.530448-215.223806 0-389.701606 77.246315-389.701606 172.530448C121.017726 696.031643 295.495526 773.278981 510.719332 773.278981zM958.097546 391.9296l-2.859118 28.886911c-1.601474 16.184611-16.021905 28.006867-32.207539 26.405393-16.184611-1.602498-28.006867-16.021905-26.40437-32.207539l0.874927-8.847505-0.273223 0c0.152473-0.525979 0.287549-1.054005 0.429789-1.581008l1.826602-18.459421c0.162706-1.647523 0.465604-3.246951 0.88209-4.795213-3.221368-94.053096-176.436408-169.862689-389.649418-169.862689-213.833133 0-387.439076 76.252685-389.675 170.686451 0.308015 1.290389 0.540306 2.613524 0.674359 3.971451l2.859118 28.887934c1.602498 16.184611-10.219759 30.605042-26.40437 32.207539-16.185634 1.601474-30.605042-10.219759-32.207539-26.405393l-2.859118-28.886911c-0.226151-2.279926-0.176009-4.523013 0.105401-6.701632-0.004093-0.409322-0.014326-0.818645-0.014326-1.227967 0-127.881552 200.360284-231.42786 447.5225-231.42786 247.158123 0 447.5225 103.546308 447.5225 231.42786 0 1.108241-0.020466 2.215458-0.050142 3.320629C958.279694 388.834098 958.252065 390.373151 958.097546 391.9296zM958.097546 175.268048l-0.040932 0.410346c-0.195451 3.733021-0.542352 7.446599-1.076518 11.133571l-0.024559 0-1.717108 17.344017c-1.601474 16.184611-16.021905 28.006867-32.207539 26.40437-16.184611-1.601474-28.006867-16.020882-26.40437-32.206516l2.859118-28.887934c0.153496-1.555425 0.428765-3.068895 0.809435-4.535293-5.249561-93.260034-177.658236-168.150698-389.576763-168.150698-212.547861 0-385.347438 75.338872-389.612579 168.985716 0.276293 1.205455 0.488117 2.437515 0.61296 3.700275l2.859118 28.887934c1.602498 16.184611-10.219759 30.604018-26.40437 32.206516-16.185634 1.602498-30.605042-10.218736-32.207539-26.40437l-2.859118-28.887934c-0.224104-2.264577-0.177032-4.493338 0.100284-6.658653 0.730641-127.558188 200.803375-230.727918 447.514313-230.727918 247.158123 0 447.5225 103.546308 447.5225 231.42786 0 0.598634-0.023536 1.193175-0.031722 1.790786C958.268438 172.472376 958.236716 173.863049 958.097546 175.268048z"  horiz-adv-x="1024" />

    
    <glyph glyph-name="edit-solid" unicode="&#58967;" d="M504.363 879.555c-278.292 0-503.755-225.516-503.755-503.755 0-278.209 225.464-503.705 503.755-503.705 278.241 0 503.757 225.491 503.757 503.705 0 278.239-225.548 503.755-503.757 503.755v0zM403.965 359.079l227.754 224.594 78.506-80.948-224.645-228.326-81.615 84.681zM465.942 263.368l-124.011-52.776 47.896 127.654 76.116-74.878zM741.759 116.217h-0.052c0-6.811-5.583-12.389-12.388-12.389l-487.851-0c-6.884 0-12.389 5.583-12.389 12.389v484.181c0 6.883 5.5 12.389 12.389 12.389h346.722l-50.757-53.919-243.818 0c-5.635 0-10.264-4.708-10.264-10.406v-380.433c0-5.693 4.624-10.321 10.264-10.321h383.426c5.693 0 10.374 4.629 10.374 10.321l0 243.55 54.349 50.375v-345.737l-0.005 0zM774.945 564.638c-10.654-11.954-45.316-46.947-45.316-46.947l-82.26 81.908 40.414 40.384c0 0 18.486 17.595 42.423 0 23.932-17.431 44.687-40.384 44.687-40.384s10.731-22.983 0.052-34.967l0 0.006zM774.945 564.638z"  horiz-adv-x="1024" />

    
    <glyph glyph-name="notice" unicode="&#58884;" d="M559.492 798.329c-28.852 13.114-61.93 8.83-86.3-11.192l-228.585-212.596h-109.466c-39.283 0-71.141-31.858-71.141-71.204v-239.46c0-39.282 31.858-71.077 71.141-71.077h109.401l229.542-212.849c14.781-11.774 32.82-17.786 51.119-17.786 10.875 0 22.009 2.177 32.371 6.653 28.021 12.031 46.257 37.11 49.005 67.176 0.323 2.62 0.449 5.437 0.449 8.127l-0 680.319v2.685c-1.024 30.964-19.254 58.283-47.535 71.203v0zM563.012 55.698c0-1.537-0.127-3.196-0.254-4.924-1.41-16.059-11.26-29.559-26.293-35.954-15.356-6.593-32.244-4.29-45.232 5.951l-225.453 209.008c-2.816 2.43-6.266 3.708-9.786 4.025-1.152 0.133-2.431 0.259-3.713 0.259l-110.355-0.126c-18.748 0-33.907 15.223-33.907 33.971v231.397c0 18.811 15.159 33.971 33.907 33.971h109.587c0.258 0 0.577 0.065 0.898 0.065 4.412-0.381 8.893 0.898 12.539 3.905l225.642 209.268c13.37 11.001 30.966 13.305 46.892 6.013 15.546-6.974 25.015-21.305 25.464-38.066 0.063-0.512 0.063-1.024 0.063-1.537l0-657.226h0.001zM911.307 587.779c-27.686 54.856-67.515 104.838-115.178 144.538-3.548 2.972-8.053 4.608-12.679 4.608-6.176 0-12.059-2.915-15.739-7.799l-0.377-0.564v-0.004c-6.111-8.448-4.667-20.111 3.425-26.821 95.035-78.817 149.539-194.859 149.539-318.375 0-122.817-53.993-238.395-148.147-317.111-8.142-6.932-9.413-18.966-2.905-27.382 3.749-4.954 9.505-7.795 15.791-7.795 4.626 0 9.11 1.616 12.628 4.553 47.245 39.669 86.721 89.538 114.158 144.215 31.969 63.62 48.179 132.074 48.179 203.457-0.001 72.088-16.385 140.885-48.694 204.481zM763.346 493.261c-16.395 34.020-40.667 64.459-70.204 88.039-3.543 2.774-7.789 4.241-12.278 4.241-6.614 0-12.791-3.248-16.531-8.703-5.825-8.663-4.094-20.135 4.033-26.69 51.105-40.814 80.417-101.677 80.417-166.983 0-64.289-28.619-124.598-78.52-165.468-7.992-6.577-9.606-18.047-3.732-26.712 3.769-5.34 9.897-8.527 16.39-8.527 0 0 0 0 0.001 0 4.611 0 9.119 1.627 12.684 4.576 59.025 48.362 92.879 119.824 92.879 196.063 0 37.945-8.692 76.040-25.137 110.162z"  horiz-adv-x="1025" />

    
    <glyph glyph-name="zhishiku" unicode="&#59084;" d="M766.486 724.801h-506.27c-34.684 0-58.848-24.164-58.848-58.85v-565.235c0-34.685 24.167-58.862 58.848-58.862h506.27c34.685 0 58.844 24.179 58.844 58.862v565.235c0 34.685-24.163 58.85-58.844 58.85zM597.735 697.355h62.802v-109.908l-31.401 31.401-31.401-31.401v109.908zM323.022 69.315h-62.805c-17.343 0-31.401 14.044-31.401 31.401v565.235c0 17.343 14.061 31.403 31.401 31.403h62.805v-628.041zM797.887 100.717c0-17.356-14.060-31.401-31.401-31.401h-416.018v628.041h219.814v-188.414l58.848 62.805 58.848-62.805v188.414h78.506c17.343 0 31.401-14.061 31.401-31.403v-565.235h0.001z"  horiz-adv-x="1024" />

    
    <glyph glyph-name="file" unicode="&#58888;" d="M433.072 419.995h300.385c9.749 0 17.67 7.912 17.67 17.67 0 9.75-7.922 17.67-17.67 17.67h-300.385c-9.766 0-17.67-7.922-17.67-17.67 0-9.758 7.903-17.67 17.67-17.67zM857.078 667.166c0 29.231-23.778 53.009-53.011 53.009h-441.743c-29.231 0-54.045-24.675-54.045-53.915l0.144-14.667-0.144-515.428c0-29.223-23.777-53.001-53.009-53.001-29.231 0-53.009 23.777-53.009 53.001 0 0.295-0.007 0.587-0.022 0.879l1.057 0.026v318.057c0 9.749 6.885 16.774 16.634 16.774h54.045v35.34h-54.045c-29.231 0-53.009-23.787-53.009-53.010v-318.066c0-48.712 39.636-88.341 88.349-88.341s88.349 39.628 88.349 88.341c0 0.295-0.008 0.587-0.022 0.879l1.058 0.026v530.094c0 9.741 6.884 16.773 16.634 16.773h441.746c9.732 0 17.669-7.938 17.669-17.677v-530.096c0-29.223-22.744-52.103-51.974-52.103l-388.667 0.208c-9.766 0-17.67-7.922-17.67-17.67 0-9.76 7.904-17.67 17.67-17.67l387.631-1.104c48.713 0 88.349 39.628 88.349 88.341 0 0.295-0.007 0.587-0.022 0.879l1.058 0.026v530.093h-0.005zM433.072 543.685h159.028c9.75 0 17.67 7.911 17.67 17.67 0 9.758-7.922 17.67-17.67 17.67h-159.028c-9.766 0-17.67-7.912-17.67-17.67 0-9.759 7.904-17.67 17.67-17.67zM433.072 172.609h300.385c9.749 0 17.67 7.92 17.67 17.678s-7.922 17.67-17.67 17.67h-300.385c-9.766 0-17.67-7.912-17.67-17.67 0-9.759 7.903-17.678 17.67-17.678zM433.072 296.308h300.385c9.749 0 17.67 7.913 17.67 17.67s-7.922 17.669-17.67 17.669h-300.385c-9.766 0-17.67-7.912-17.67-17.669 0-9.758 7.903-17.67 17.67-17.67z"  horiz-adv-x="1024" />

    
    <glyph glyph-name="sort" unicode="&#58940;" d="M352 448h320l-160.001 192-160.001-192zM672 320h-320l160.001-192 160.001 192z"  horiz-adv-x="1024" />

    
    <glyph glyph-name="phone" unicode="&#59199;" d="M161.662558 554.743596c0-7.937129-6.231298-14.168427-14.168427-14.168427-7.937129 0-14.168427 6.231298-14.168427 14.168427 0 40.227496 16.145184 81.026948 38.25074 114.461225 26.62099 40.518491 62.905007 70.832102 90.097952 77.344361 7.365174 1.695796 15.021342-3.120666 16.717139-10.766801s-2.829672-15.021342-10.475806-16.998099c-20.700755-4.816463-49.88049-30.313611-72.828927-65.162724C175.820951 624.441823 161.662558 589.020755 161.662558 554.743596L161.662558 554.743596zM262.24635 718.784282c-7.084214 3.120666-10.475806 11.619716-7.35514 18.703929 3.120666 7.084214 11.328721 10.475806 18.402901 7.365174 12.472631-5.097423 25.226222-13.315512 37.407859-24.082313 12.181636-10.20488 24.082313-22.948437 35.702028-37.678785 19.26585-24.925194 36.554944-50.713337 49.298501-75.35757 11.609682-22.386516 19.26585-43.910083 21.252641-63.747888 0.571955-7.656169-5.107457-14.730348-12.753591-15.583263-7.646134-0.561921-14.730348 5.097423-15.292268 12.753591-1.695796 16.155218-8.499049 34.287193-18.142009 53.553043-11.900676 23.229397-28.316786 47.31171-46.739755 71.113062-10.20488 13.034552-20.971681 24.363273-31.728447 33.715238C282.074121 708.017482 272.160235 714.820735 262.24635 718.784282L262.24635 718.784282zM761.171661 76.218011c5.950338 5.097423 14.730348 4.244508 19.837805-1.70583 4.806428-5.950338 3.963547-15.011308-1.986791-19.837805-58.650465-48.726546-132.312239-40.508457-212.767232-0.28096-77.073435 38.5317-160.358099 106.815091-241.676041 181.61074-58.650465 53.834003-105.671181 110.507712-138.262577 165.184596-33.434277 55.519765-51.847212 109.353768-52.981088 156.384517 0 7.937129 6.231298 14.168427 13.887467 14.449388 7.937129 0 14.168427-5.950338 14.449388-13.877433 0.852915-42.214287 17.84098-91.221793 48.726546-142.517119 31.457521-52.128172 76.491445-106.524096 133.165154-158.662303 79.893072-73.661774 161.20098-140.249368 235.163782-177.356198C649.259147 44.188535 712.726075 36.26144 761.171661 76.218011L761.171661 76.218011zM592.314512 218.725096c7.074179-3.682587 9.632925-12.181636 6.231298-18.98489-3.682587-7.084214-12.191671-9.632925-18.98489-6.231298-19.54681 10.194846-40.799451 22.095522-62.052092 35.702028-18.422969 11.609682-36.554944 24.363273-52.981088 37.678785-39.665576 31.728447-72.537932 64.028849-98.877962 96.610211-27.473905 33.715238-47.873631 68.00243-61.480137 101.717668-2.829672 7.365174 0.571955 15.583263 7.937129 18.422969 7.074179 2.819637 15.292268-0.571955 18.412935-7.937129 12.462597-30.885566 31.447487-62.614013 56.944635-94.34246 25.497148-31.166526 56.954669-62.333052 94.643488-92.646663 16.145184-12.753591 33.143283-24.644233 50.422342-35.702028C552.929897 239.967702 573.329623 228.358021 592.314512 218.725096L592.314512 218.725096zM325.141323 459.267261c-6.522293-3.973582-15.302303-1.42487-18.994924 5.378383-3.963547 6.803253-1.695796 15.302303 5.107457 19.26585 6.231298 3.411661 10.48584 5.659343 14.449388 7.937129 9.06097 4.816463 16.426144 8.78001 28.888741 16.998099 15.021342 9.913885 25.788143 17.289094 30.61464 24.363273 3.672553 5.388417 4.244508 12.181636 1.123841 22.667477-2.267751 7.656169 1.986791 15.302303 9.351965 17.570054 7.656169 2.267751 15.292268-1.986791 17.570054-9.351965 5.950338-20.108731 4.254542-33.996198-4.816463-47.03075-7.646134-11.047761-20.399726-20.108731-38.25074-31.728447-14.168427-9.351965-21.824596-13.596472-31.166526-18.412935C334.774248 464.364684 330.238746 462.096933 325.141323 459.267261L325.141323 459.267261zM657.196276 292.386869c-7.656169 1.133876-13.034552 8.218089-12.191671 15.864223 1.133876 7.656169 8.218089 13.315512 15.874258 12.191671 13.586438-1.70583 27.7649-6.241333 42.485213-13.034552l0.852915-0.28096c14.168427-6.803253 28.898775-15.593297 43.639157-26.631024 25.216188-18.98489 49.01754-39.093621 67.992396-59.503381 16.717139-18.131975 30.032651-37.10683 37.397825-55.529799 2.839706-7.365174-0.842881-15.583263-8.208055-18.412935-7.084214-2.829672-15.292268 0.852915-18.131975 7.927095-5.960372 15.302303-17.289094 30.885566-32.019441 47.040784-17.56002 18.98489-39.936502 37.959745-64.028849 55.820794-13.034552 9.632925-26.069103 17.56002-38.5317 23.520392l-0.852915 0.270926C679.291798 287.289446 667.672082 290.972033 657.196276 292.386869L657.196276 292.386869zM775.621049 51.844704c-6.231298-4.535502-15.011308-3.401627-19.54681 2.829672-4.806428 6.231298-3.401627 15.021342 2.829672 19.837805l0.28096 0.28096c28.055894 20.971681 84.428574 63.185968 61.761098 92.927624-4.525468 6.241333-3.401627 15.021342 2.829672 19.837805 6.241333 4.535502 15.302303 3.401627 19.837805-2.829672 39.384615-52.128172-32.009407-105.962175-67.711436-132.593199L775.621049 51.844704zM599.388692 201.436002c-2.267751-7.365174-10.475806-11.328721-17.84098-8.78001s-11.338756 10.48584-8.78001 17.84098c5.378383 15.593297 10.194846 24.935228 17.279059 37.688819 2.277785 4.244508 4.816463 8.78001 7.365174 13.877433 9.351965 18.142009 18.693895 31.166526 27.483939 39.946536 12.753591 13.315512 25.216188 18.693895 34.277158 18.693895 7.937129 0 14.168427-6.512259 14.168427-14.158393 0-7.937129-6.231298-14.168427-14.168427-14.168427-2.548711 0-7.365174-2.829672-14.168427-9.913885-6.793219-7.084214-14.439353-17.84098-22.667477-33.434277-2.829672-5.659343-5.378383-10.194846-7.646134-14.158393C608.750691 223.250563 603.934228 214.751514 599.388692 201.436002L599.388692 201.436002zM503.922391 479.375992c-6.803253-3.973582-15.302303-1.70583-19.26585 5.097423-3.973582 6.803253-1.70583 15.302303 5.097423 19.26585 16.998099 10.20488 37.959745 13.887467 59.212386 11.057795 20.399726-2.548711 41.080412-11.057795 59.212386-25.497148 14.439353-11.619716 25.778109-25.497148 33.424243-40.237531 7.937129-15.583263 12.191671-32.300402 11.91071-48.445585-0.28096-7.937129-6.512259-14.168427-14.449388-13.887467-7.646134 0-13.877433 6.512259-13.877433 14.168427 0.270926 11.609682-2.839706 23.801352-8.790044 35.130073-5.659343 11.619716-14.439353 22.095522-25.778109 31.156492-13.887467 11.057795-29.75169 17.570054-45.334953 19.556845C530.272455 488.727957 515.532073 486.460206 503.922391 479.375992L503.922391 479.375992zM512.130446 579.959784c-6.803253-3.973582-15.292268-1.695796-19.26585 5.097423-3.963547 6.803253-1.70583 15.302303 4.816463 19.26585 25.778109 15.011308 56.944635 20.399726 88.954042 16.436178 30.604606-4.254542 62.052092-16.998099 89.536031-38.822695 22.095522-17.56002 39.093621-38.5317 50.713337-60.908182 12.191671-23.520392 18.142009-48.726546 17.851014-72.808858-0.28096-7.937129-6.512259-14.168427-14.449388-13.897501-7.646134 0-13.887467 6.522293-13.887467 14.168427 0.28096 19.54681-4.806428 40.237531-14.730348 59.503381-9.632925 19.26585-24.373307 37.116864-43.067202 51.847212-23.229397 18.412935-49.860421 29.47073-75.648564 32.862322C557.174405 596.104968 532.249211 591.850426 512.130446 579.959784L512.130446 579.959784zM489.753964 678.556786c-6.803253-3.682587-15.583263-1.414836-19.54681 5.097423-3.973582 6.803253-1.695796 15.583263 5.107457 19.26585 40.789417 24.082313 90.940833 32.862322 142.507085 26.069103 49.298501-6.512259 100.011837-27.192945 144.774836-62.614013 35.702028-28.32682 63.185968-62.323018 81.879863-98.597001 19.54681-37.96978 29.47073-78.197276 28.898775-117.300931-0.28096-7.646134-6.512259-13.877433-14.439353-13.877433-7.656169 0.28096-13.887467 6.512259-13.887467 14.439353 0.571955 34.287193-8.218089 69.989221-25.497148 103.985419-16.998099 32.862322-41.933327 63.747888-74.514689 89.245037-40.518491 32.009407-86.415365 51.004331-130.897403 56.663675C568.804155 706.883606 524.884037 699.518432 489.753964 678.556786L489.753964 678.556786z"  horiz-adv-x="1024" />

    
    <glyph glyph-name="arrow-double-left" unicode="&#58898;" d="M455.065 412.092l-28.027-27.997 0.041-0.041-0.131-0.127 28.112-28.142 0.084 0.084 451.402-451.87 28.078 28.055-451.413 451.88 451.88 451.418-28.054 28.084-451.973-451.344zM596.559-67.381l-451.418 451.883 451.88 451.412-28.049 28.086-479.997-479.608 28.012-28.043 0.084 0.084 451.403-451.87 28.086 28.056zM596.559-67.381z"  horiz-adv-x="1024" />

    
    <glyph glyph-name="wen" unicode="&#58890;" d="M515.41068 743.180476c48.500621 0 95.53689-9.493212 139.801023-28.215622 42.768059-18.088984 81.182974-43.99091 114.177436-76.986395 32.995485-32.995485 58.897412-71.4104 76.986395-114.177436 18.72241-44.264133 28.215622-91.300402 28.215622-139.801023s-9.493212-95.53689-28.215622-139.801023c-18.088984-42.768059-43.99091-81.182974-76.986395-114.177436-32.995485-32.995485-71.4104-58.897412-114.177436-76.986395-44.264133-18.72241-91.300402-28.215622-139.801023-28.215622s-95.53689 9.493212-139.801023 28.215622c-42.768059 18.088984-81.182974 43.99091-114.177436 76.986395-32.995485 32.995485-58.897412 71.4104-76.986395 114.177436-18.72241 44.264133-28.215622 91.300402-28.215622 139.801023s9.493212 95.53689 28.215622 139.801023c18.088984 42.768059 43.99091 81.182974 76.986395 114.177436 32.995485 32.995485 71.4104 58.897412 114.177436 76.986395C419.87379 733.687264 466.910059 743.180476 515.41068 743.180476M515.41068 769.786437c-213.063607 0-385.786437-172.72283-385.786437-385.786437s172.72283-385.786437 385.786437-385.786437 385.786437 172.72283 385.786437 385.786437S728.474286 769.786437 515.41068 769.786437L515.41068 769.786437zM419.673222 258.782114l31.029714 0 0 24.564465 151.696957 0L602.399893 455.732741 419.673222 455.732741 419.673222 258.782114zM668.765393 531.579173l0-296.497854c0-22.408359-10.486842-33.614585-31.458479-33.614585-22.124903 0-45.110407 0.860601-68.953442 2.584871 3.448542-14.651698 5.742794-26.288736 6.897084-34.907021 22.695908-0.574075 46.251394-0.860601 70.674643-0.860601 37.636179 0 56.45785 20.829398 56.45785 62.488193L702.383048 563.901323 455.872678 563.901323l0-32.32215L668.765393 531.579173zM571.370179 315.240987 450.702935 315.240987 450.702935 423.842427l120.667244 0L571.370179 315.240987zM320.982502 168.283983l33.617655 0L354.600157 506.154108l-33.617655 0L320.982502 168.283983zM401.572982 503.998001l28.013007 24.564465c-25.859971 27.00812-46.689369 47.978734-62.491263 62.920028l-24.564465-21.976524C357.185029 554.561607 376.863207 532.730393 401.572982 503.998001L401.572982 503.998001z"  horiz-adv-x="1024" />

    
    <glyph glyph-name="date" unicode="&#58880;" d="M925.063-78.679h-837.126c-20.885 0-37.839 16.969-37.839 37.839v759.090c0 20.866 16.949 37.839 37.839 37.839h138.749v-37.839h-138.749v-759.090h837.126v759.090h-119.789v37.839h119.789c20.885 0 37.839-16.969 37.839-37.839v-759.090c0-20.866-16.969-37.839-37.839-37.839zM433.193 756.082h163.964v-37.839h-163.964v37.839zM352.791 646.469h-42.566c-20.885 0-37.839 16.969-37.839 37.839v124.539c0 20.866 16.949 37.839 37.839 37.839h42.566c20.885 0 37.839-16.969 37.839-37.839v-124.539c0-20.885-16.969-37.839-37.839-37.839zM310.226 808.844v-124.539h42.603l-0.039 124.539h-42.564zM725.973 646.469h-42.566c-20.866 0-37.839 16.969-37.839 37.839v124.539c0 20.866 16.969 37.839 37.839 37.839h42.566c20.885 0 37.839-16.969 37.839-37.839v-124.539c0-20.885-16.949-37.839-37.839-37.839zM683.406 808.844v-124.539h42.603l-0.037 124.539h-42.566zM437.923 361.166h-171.852c-20.866 0-37.839 16.969-37.839 37.839v83.561c0 20.866 16.969 37.839 37.839 37.839h171.85c20.885 0 37.839-16.969 37.839-37.839v-83.561c0-20.866-16.969-37.839-37.839-37.839zM266.073 482.545v-83.561h171.89l-0.039 83.561h-171.85zM765.851 361.166h-171.85c-20.885 0-37.839 16.969-37.839 37.839v83.561c0 20.866 16.949 37.839 37.839 37.839h171.85c20.866 0 37.839-16.969 37.839-37.839v-83.561c0-20.866-16.988-37.839-37.839-37.839zM593.997 482.545v-83.561h171.871l-0.019 83.561h-171.85zM442.653 96.314h-171.85c-20.866 0-37.839 16.969-37.839 37.839v83.561c0 20.866 16.969 37.839 37.839 37.839h171.85c20.885 0 37.839-16.969 37.839-37.839v-83.561c0-20.866-16.969-37.839-37.839-37.839zM270.8 217.692v-83.561h171.89l-0.037 83.561h-171.85zM772.149 96.314h-171.83c-20.885 0-37.839 16.969-37.839 37.839v83.561c0 20.866 16.949 37.839 37.839 37.839h171.83c20.866 0 37.839-16.969 37.839-37.839v-83.561c0-20.866-16.988-37.839-37.839-37.839zM600.316 217.692v-83.561h171.85l-0.019 83.561h-171.83z"  horiz-adv-x="1024" />

    
    <glyph glyph-name="trash" unicode="&#58911;" d="M440.845 653.867c-30.966 0-38.592 0.070-55.229 0.212-19.97 0.177-33.964 4.807-44.234 10.481s-9.328 22.399-8.886 43.1v70.571c0 29.334 23.873 53.207 53.207 53.207h271.942c29.334 0 53.207-23.873 53.207-53.207v-70.943c0-2.714 0.531-7.839 0.531-7.839s0.692-28.021-7.307-31.979 14.17-10.606-46.433-13.391l-216.801-0.212zM367.916 690.173c4.7-0.496 12.663-0.566 17.932-0.62 16.619-0.141 24.191-0.212 54.996-0.212l216.783 0.212c10.731 0 16.245 0.957 18.853 1.667-0.070 1.454-0.268 3.264-0.39 4.735-0.372 3.618-0.71 7.413-0.71 11.351v70.943c0 9.791-7.948 17.734-17.734 17.734h-271.961c-9.791 0-17.734-7.948-17.734-17.734v-70.943c-0.124-6.35-0.268-13.053-0.036-17.132zM78.999 675.524h882.352v-35.474h-882.352v35.474zM714.685-43.147c-4.291 0-7.483 0.231-9.116 0.372h-373.834c-74.596 2.571-101.235 54.164-102.335 56.365l-1.651 3.298-0.194 3.671-35.474 650.298 35.401 1.934 35.241-645.97c5.481-8.211 25.397-32.617 69.595-34.14l376.069-0.106c0.268-0.018 30.559-3.051 49.358 12.308 8.886 7.237 13.852 17.593 15.219 31.641l30.966 622.133 35.437-1.773-31.037-622.969c-2.361-24.563-11.902-43.364-28.413-56.718-21.813-17.682-50.227-20.342-65.231-20.342zM367.204 551.373h35.474v-461.129h-35.474v461.129zM537.9 551.461l1.475-461.129-35.474-0.113-1.475 461.129 35.474 0.113zM637.676 551.373h35.474v-461.129h-35.474v461.129z"  horiz-adv-x="1024" />

    
    <glyph glyph-name="edit-file" unicode="&#58913;" d="M150.635 829.53h35.474v-146.319h-35.474v146.319zM150.635 384.578h35.474v-428.53h-35.474v428.53zM496.483 829.53h35.474v-274.905h-35.474v274.905zM496.483 248.686h35.474v-292.641h-35.474v292.641zM837.894 829.53h35.474v-390.188h-35.474v390.188zM837.894 102.366h35.474v-146.319h-35.474v146.319zM175.022 421.611c-52.569 0-95.329 42.759-95.329 95.329s42.759 95.329 95.329 95.329 95.329-42.759 95.329-95.329-42.759-95.329-95.329-95.329zM175.022 576.797c-33.007 0-59.858-26.851-59.858-59.858s26.851-59.858 59.858-59.858 59.858 26.851 59.858 59.858-26.851 59.858-59.858 59.858zM855.628 174.887c-52.569 0-95.329 42.759-95.329 95.329s42.759 95.329 95.329 95.329 95.329-42.759 95.329-95.329-42.759-95.329-95.329-95.329zM855.628 330.075c-33.007 0-59.858-26.851-59.858-59.858s26.851-59.858 59.858-59.858 59.858 26.851 59.858 59.858-26.851 59.858-59.858 59.858zM514.217 303.152c-52.569 0-95.329 42.759-95.329 95.329s42.759 95.329 95.329 95.329 95.329-42.759 95.329-95.329-42.759-95.329-95.329-95.329zM514.217 458.34c-33.007 0-59.858-26.851-59.858-59.858s26.851-59.858 59.858-59.858c33.007 0 59.858 26.851 59.858 59.858s-26.851 59.858-59.858 59.858z"  horiz-adv-x="1024" />

    
    <glyph glyph-name="tick-circle" unicode="&#58914;" d="M512.216-65.995c-250.606 0-454.479 203.873-454.479 454.479s203.873 454.479 454.479 454.479 454.479-203.873 454.479-454.479-203.873-454.479-454.479-454.479zM512.216 807.492c-231.044 0-419.007-187.965-419.007-419.007s187.965-419.007 419.007-419.007 419.007 187.965 419.007 419.007-187.946 419.007-419.007 419.007zM441.999 226.645c-0.070 0-0.141 0-0.194 0-4.771 0.053-9.296 2.004-12.592 5.444l-183.282 190.659 25.558 24.598 170.779-177.659 294.625 293.206 25.007-25.149-307.412-305.942c-3.298-3.298-7.786-5.162-12.486-5.162z"  horiz-adv-x="1024" />

    
    <glyph glyph-name="close-circle" unicode="&#58915;" d="M516.829-62.526c-240.816 0-436.742 195.926-436.742 436.742s195.926 436.742 436.742 436.742 436.742-195.926 436.742-436.742-195.926-436.742-436.742-436.742zM516.829 775.486c-221.27 0-401.27-180-401.27-401.27s180-401.27 401.27-401.27 401.269 180 401.269 401.27-180.018 401.27-401.269 401.27zM382.437 541.165l301.494-305.92-25.263-24.898-301.494 305.92 25.263 24.898zM658.336 540.681l25.952-24.187-301.593-323.62-25.952 24.187 301.593 323.62z"  horiz-adv-x="1024" />

    
    <glyph glyph-name="reload-line" unicode="&#58904;" d="M512-48.231c-245.14 0-444.576 199.454-444.576 444.576 0 245.158 199.436 444.594 444.576 444.594 128.133 0 272.061-68.254 358.121-169.904l-28.85-24.462c-79.247 93.627-211.619 156.528-329.231 156.528-224.256 0-406.738-182.483-406.738-406.757 0-224.256 182.483-406.738 406.738-406.738s406.757 182.483 406.757 406.738c0 28.679-2.989 57.227-8.949 85.037l37.023 7.869c6.469-30.345 9.761-61.655 9.761-92.905-0.057-245.121-199.509-444.576-444.633-444.576zM874.582 632.841h-189.183v37.839h151.345v167.123h37.839z"  horiz-adv-x="1024" />

    
    <glyph glyph-name="time" unicode="&#58905;" d="M497.841 820.313c-240.299 0-435.116-194.819-435.116-435.116s194.819-435.116 435.116-435.116 435.116 194.819 435.116 435.116-194.819 435.116-435.116 435.116zM497.841-12.084c-219.411 0-397.28 177.869-397.28 397.28s177.869 397.28 397.28 397.28 397.28-177.869 397.28-397.28-177.869-397.28-397.28-397.28zM701.362 286.917l-184.605 104.637v267.954c0 5.221-4.238 9.459-9.459 9.459h-18.916c-5.221 0-9.459-4.238-9.459-9.459v-283.771c0-1.966 0.738-3.67 1.761-5.184 0.815-1.649 1.948-3.141 3.651-4.103l198.395-112.45c4.541-2.572 10.311-0.986 12.883 3.556l9.325 16.479c2.572 4.541 0.986 10.311-3.577 12.883z"  horiz-adv-x="1024" />

    
    <glyph glyph-name="arrow-double-right" unicode="&#58900;" d="M568.935 355.908l28.027 27.997-0.041 0.041 0.131 0.127-28.112 28.142-0.084-0.084-451.402 451.87-28.078-28.055 451.413-451.88-451.88-451.418 28.055-28.084 451.973 451.344zM427.441 835.381l451.418-451.883-451.88-451.412 28.049-28.086 479.997 479.608-28.012 28.043-0.084-0.084-451.403 451.87-28.086-28.056zM427.441 835.381z"  horiz-adv-x="1024" />

    
    <glyph glyph-name="export-2" unicode="&#59132;" d="M835.279 533.118c0-0.573-0.283-0.954-0.283-1.523-0.192-2.661-0.573-5.181-1.57-7.744-1.189-2.853-2.947-5.322-5.036-7.508-0.097-0.095-0.145-0.095-0.239-0.193l-179.483-179.148c-4.753-4.8-10.927-6.461-17.203-6.461-6.272 0-12.544 3.658-17.297 8.458-9.549 9.503-9.549 27.608 0 37.161l137.856 143.128h-411.281c-15.778 0-113.858-43.24-113.858-163.037v-122.080c0 0 3.517-29.032-23.428-29.032-24.759 0-24.095 29.032-24.095 29.032v122.080c0 134.1 100.505 198.060 151.212 208.85 1.661 0.381 5.653 1.711 7.41 1.711h414.041l-137.809 133.149c-9.549 9.503-9.549 20.292 0 29.748 9.459 9.554 24.903 9.554 34.453 0l179.483-179.389c0.475-0.475 0.667-1.044 0.997-1.52 1.664-1.997 3.235-4.038 4.278-6.464 0.997-2.661 1.519-5.462 1.664-8.266 0-0.333 0.188-0.62 0.188-0.95v0zM797.121 281.688v0-142.557h-570.237c-47.522 0-47.522-47.519 0-47.519h570.237c26.277 0 47.519 21.241 47.519 47.519v142.557c0 47.523-47.519 47.523-47.519 0v0zM797.121 281.688z"  horiz-adv-x="1024" />

    
    <glyph glyph-name="qq" unicode="&#58958;" d="M534.377148 831.88168c302.340933 0 317.210595-288.721751 317.210595-288.721751 45.862537-60.731176 21.084201-115.245767 21.084201-115.245767 147.456377-231.735875 52.05047-298.68466 26.02677-303.621089-26.02677-4.937452-50.829665 28.51852-50.829665 28.51852s-8.650007-33.429367-29.740348-50.823526c76.854389-35.897581 63.201437-80.536244 63.201437-80.536244s-16.117073-134.765333-335.797929-49.576115l-27.27111 4.964058c-306.406528-110.594841-344.484775 38.423101-344.484775 38.423101s-12.401448 61.926398 47.078225 85.505419c-34.707476 21.084201-47.078225 65.669652-47.078225 65.669652s-30.992875-50.79692-71.881121-32.212656c-40.895409 18.587334-65.668629 183.380564 87.973634 302.33991 0 0-22.280446 70.63678 28.517497 112.778576C218.386334 549.343769 232.035192 831.88168 534.377148 831.88168M265.464559 533.226696c-66.916039-56.986899-22.303982-114.024963-22.303982-114.024963C95.705224 328.732256 121.729947 182.527382 121.729947 182.527382s23.52274 11.789511 40.251749 45.857421c16.731056 34.07098 42.754756-5.574972 42.754756-5.574972s16.117073-78.070076 65.462944-108.651582c49.348941-30.582529-2.174526-50.095955-2.174526-50.095955s-54.318116-0.788969-49.63956-37.673018c4.673439-36.885072 179.871647-83.065857 285.004079-1.24741l55.757908-7.437389c183.415356-63.783699 273.856182-4.298909 279.895735 7.111978 6.0416 11.411911-27.704992 33.809013-58.724473 46.788629-31.022551 12.986779-39.003316 26.66736-11.562337 44.936445 27.445072 18.262946 38.281885 54.513568 54.342676 92.036159 16.054651 37.525662 40.250726 19.197224 43.3626 8.650007 3.105734-10.541077 26.02063-45.825698 26.02063-45.825698s59.743686 63.312978-64.446801 250.297626c0 0 26.951839 56.026014-18.591427 101.592816 0 0-11.124362 262.724657-280.062534 262.724657C260.442172 786.01812 265.464559 533.226696 265.464559 533.226696"  horiz-adv-x="1024" />

    
    <glyph glyph-name="questions" unicode="&#59564;" d="M158.848 483.008l309.152-139.008c27.328-12.864 39.136-12.864 68.736 0l309.12 139.008c22.816 10.592 23.424 55.712 0 68.672l-309.12 163.232c-24.288 14.4-41.376 13.632-68.736 0l-309.152-163.232c-23.52-15.2-24.288-55.808 0-68.672zM502.368 80.576l-315.776 145.568c1.056-0.672-27.968 12.672-48.608 24.416 0-17.728 4.416-49.984 20.832-58.528l309.152-139.136c27.328-12.768 39.136-12.768 68.704 0l309.216 139.104c15.296 7.136 20.672 40.672 20.672 58.528-19.872-10.016-48.032-24.288-48.672-24.416l-315.52-145.536zM158.848 337.408l309.152-138.976c27.328-12.896 39.136-12.896 68.736 0l309.12 138.976c15.328 7.104 20.704 40.544 20.704 58.592-19.872-9.984-48.032-24.128-48.672-24.256l-315.808-145.632-315.52 145.632c1.056-0.672-27.968 12.448-48.608 24.256 0.064-17.632 4.48-49.888 20.896-58.592z"  horiz-adv-x="1024" />

    
    <glyph glyph-name="link" unicode="&#59444;" d="M697.769 158.253h-76.493l43.711 45.149h32.783c90.528 0 163.914 75.803 163.914 169.31v22.575c0 93.509-73.386 169.31-163.914 169.31h-109.276c-90.528 0-163.914-75.802-163.914-169.31v-22.575c0-17.095 2.505-33.578 7.068-49.136l-34.068-35.187c-10.731 25.889-16.711 54.378-16.711 84.323v22.575c0 118.442 92.957 214.46 207.625 214.46h109.276c114.667 0 207.623-96.017 207.623-214.46v-22.575c0-118.442-92.957-214.46-207.625-214.46zM326.231 564.597c-90.527 0-163.914-75.802-163.914-169.31v-22.575c0-93.507 73.387-169.31 163.914-169.31h109.276c90.527 0 163.914 75.803 163.914 169.31v22.575c0 17.095-2.505 33.579-7.068 49.136l34.068 35.19c10.731-25.889 16.711-54.38 16.711-84.325v-22.575c0-118.442-92.957-214.46-207.623-214.46h-109.276c-114.667 0-207.625 96.017-207.625 214.46v22.575c0 118.442 92.957 214.46 207.625 214.46h76.493l-43.711-45.149h-32.783z"  horiz-adv-x="1024" />

    
    </font>
</defs>
</svg>
